%
M48
M72
T01C0.0120
T02C0.0320
T03C0.0394
T04C0.0400
T05C0.1102
T06C0.1180
T07C0.1181
T08C0.1260
%
T01
X9660Y8633
X13950Y8253
X10000Y15043
X14640Y8623
X13690Y10073
T02
X4600Y7633
X4600Y3633
X5600Y3633
X5600Y7633
X6600Y7633
X6600Y3633
X7600Y7633
X7600Y3633
X2100Y15633
X2600Y14883
X3100Y15633
X12600Y7633
X12600Y11633
X10600Y10633
X10600Y14633
X10850Y17383
X6850Y17383
X6850Y16383
X10850Y16383
X10850Y15383
X6850Y15383
T03
X3100Y16883
X4100Y16883
X5100Y16883
X10600Y19633
X11600Y19633
X12600Y19633
X6600Y19633
X7600Y19633
X8600Y19633
X2600Y19633
X3600Y19633
X4600Y19633
X14600Y19633
X15600Y19633
X16600Y19633
X17600Y19633
X18600Y8633
X18600Y7633
X18600Y6633
X18600Y5633
X11850Y2133
X10850Y2133
T04
X9100Y13133
X9100Y12133
X9100Y11133
X9100Y10133
X9100Y9133
X9100Y8133
X9100Y7133
X9100Y6133
X9100Y5133
X9100Y4133
X9100Y3133
X9100Y2133
X3100Y2133
X3100Y3133
X3100Y4133
X3100Y5133
X3100Y6133
X3100Y7133
X3100Y8133
X3100Y9133
X3100Y10133
X3100Y11133
X3100Y12133
X3100Y13133
X8100Y8633
X8100Y9633
X3600Y14133
X4600Y14133
X5600Y14133
X6600Y14133
X7600Y14133
X8600Y14133
X1100Y18383
X1100Y17383
X1100Y16383
X1100Y15383
X1100Y14383
X1100Y13383
X1100Y12383
X1100Y11383
X1100Y10383
X1100Y9383
X1100Y8383
X1100Y7383
X1100Y6383
X1100Y5383
X1100Y4383
X1100Y3383
X16630Y15743
X16630Y17523
X14070Y15743
X14070Y17523
X17210Y12103
X18990Y12103
X17210Y14663
X18990Y14663
X11710Y12103
X13490Y12103
X11710Y14663
X13490Y14663
X16630Y9243
X16630Y11023
X14070Y9243
X14070Y11023
X16240Y14663
X14460Y14663
X16240Y12103
X14460Y12103
X6100Y2133
X7100Y2133
X8100Y2133
X11350Y5383
X10350Y5383
X11350Y6383
X10350Y6383
X11350Y7383
X10350Y7383
X11350Y8383
X10350Y8383
X11350Y9383
X10350Y9383
X13100Y1883
X14100Y1883
T05
X994Y19883
X18600Y10633
T06
X18269Y2893
X16637Y4364
T07
X1244Y2027
X18744Y17527
T08
X15386Y2883
M30
