G75*
G70*
%OFA0B0*%
%FSLAX24Y24*%
%IPPOS*%
%LPD*%
%AMOC8*
5,1,8,0,0,1.08239X$1,22.5*
%
%ADD10C,0.0000*%
%ADD11C,0.0040*%
%ADD12C,0.0080*%
%ADD13C,0.0050*%
%ADD14C,0.0060*%
%ADD15R,0.0240X0.0340*%
%ADD16C,0.0100*%
%ADD17R,0.0827X0.0157*%
%ADD18C,0.0020*%
%ADD19R,0.0340X0.0240*%
%ADD20C,0.0010*%
%ADD21R,0.0200X0.0200*%
D10*
X000100Y001133D02*
X000100Y020818D01*
X019592Y020818D01*
X019592Y001133D01*
X000100Y001133D01*
X000653Y002027D02*
X000655Y002075D01*
X000661Y002123D01*
X000671Y002170D01*
X000684Y002216D01*
X000702Y002261D01*
X000722Y002305D01*
X000747Y002347D01*
X000775Y002386D01*
X000805Y002423D01*
X000839Y002457D01*
X000876Y002489D01*
X000914Y002518D01*
X000955Y002543D01*
X000998Y002565D01*
X001043Y002583D01*
X001089Y002597D01*
X001136Y002608D01*
X001184Y002615D01*
X001232Y002618D01*
X001280Y002617D01*
X001328Y002612D01*
X001376Y002603D01*
X001422Y002591D01*
X001467Y002574D01*
X001511Y002554D01*
X001553Y002531D01*
X001593Y002504D01*
X001631Y002474D01*
X001666Y002441D01*
X001698Y002405D01*
X001728Y002367D01*
X001754Y002326D01*
X001776Y002283D01*
X001796Y002239D01*
X001811Y002194D01*
X001823Y002147D01*
X001831Y002099D01*
X001835Y002051D01*
X001835Y002003D01*
X001831Y001955D01*
X001823Y001907D01*
X001811Y001860D01*
X001796Y001815D01*
X001776Y001771D01*
X001754Y001728D01*
X001728Y001687D01*
X001698Y001649D01*
X001666Y001613D01*
X001631Y001580D01*
X001593Y001550D01*
X001553Y001523D01*
X001511Y001500D01*
X001467Y001480D01*
X001422Y001463D01*
X001376Y001451D01*
X001328Y001442D01*
X001280Y001437D01*
X001232Y001436D01*
X001184Y001439D01*
X001136Y001446D01*
X001089Y001457D01*
X001043Y001471D01*
X000998Y001489D01*
X000955Y001511D01*
X000914Y001536D01*
X000876Y001565D01*
X000839Y001597D01*
X000805Y001631D01*
X000775Y001668D01*
X000747Y001707D01*
X000722Y001749D01*
X000702Y001793D01*
X000684Y001838D01*
X000671Y001884D01*
X000661Y001931D01*
X000655Y001979D01*
X000653Y002027D01*
X018049Y010633D02*
X018051Y010680D01*
X018057Y010726D01*
X018067Y010772D01*
X018080Y010817D01*
X018098Y010860D01*
X018119Y010902D01*
X018143Y010942D01*
X018171Y010979D01*
X018202Y011014D01*
X018236Y011047D01*
X018272Y011076D01*
X018311Y011102D01*
X018352Y011125D01*
X018395Y011144D01*
X018439Y011160D01*
X018484Y011172D01*
X018530Y011180D01*
X018577Y011184D01*
X018623Y011184D01*
X018670Y011180D01*
X018716Y011172D01*
X018761Y011160D01*
X018805Y011144D01*
X018848Y011125D01*
X018889Y011102D01*
X018928Y011076D01*
X018964Y011047D01*
X018998Y011014D01*
X019029Y010979D01*
X019057Y010942D01*
X019081Y010902D01*
X019102Y010860D01*
X019120Y010817D01*
X019133Y010772D01*
X019143Y010726D01*
X019149Y010680D01*
X019151Y010633D01*
X019149Y010586D01*
X019143Y010540D01*
X019133Y010494D01*
X019120Y010449D01*
X019102Y010406D01*
X019081Y010364D01*
X019057Y010324D01*
X019029Y010287D01*
X018998Y010252D01*
X018964Y010219D01*
X018928Y010190D01*
X018889Y010164D01*
X018848Y010141D01*
X018805Y010122D01*
X018761Y010106D01*
X018716Y010094D01*
X018670Y010086D01*
X018623Y010082D01*
X018577Y010082D01*
X018530Y010086D01*
X018484Y010094D01*
X018439Y010106D01*
X018395Y010122D01*
X018352Y010141D01*
X018311Y010164D01*
X018272Y010190D01*
X018236Y010219D01*
X018202Y010252D01*
X018171Y010287D01*
X018143Y010324D01*
X018119Y010364D01*
X018098Y010406D01*
X018080Y010449D01*
X018067Y010494D01*
X018057Y010540D01*
X018051Y010586D01*
X018049Y010633D01*
X018153Y017527D02*
X018155Y017575D01*
X018161Y017623D01*
X018171Y017670D01*
X018184Y017716D01*
X018202Y017761D01*
X018222Y017805D01*
X018247Y017847D01*
X018275Y017886D01*
X018305Y017923D01*
X018339Y017957D01*
X018376Y017989D01*
X018414Y018018D01*
X018455Y018043D01*
X018498Y018065D01*
X018543Y018083D01*
X018589Y018097D01*
X018636Y018108D01*
X018684Y018115D01*
X018732Y018118D01*
X018780Y018117D01*
X018828Y018112D01*
X018876Y018103D01*
X018922Y018091D01*
X018967Y018074D01*
X019011Y018054D01*
X019053Y018031D01*
X019093Y018004D01*
X019131Y017974D01*
X019166Y017941D01*
X019198Y017905D01*
X019228Y017867D01*
X019254Y017826D01*
X019276Y017783D01*
X019296Y017739D01*
X019311Y017694D01*
X019323Y017647D01*
X019331Y017599D01*
X019335Y017551D01*
X019335Y017503D01*
X019331Y017455D01*
X019323Y017407D01*
X019311Y017360D01*
X019296Y017315D01*
X019276Y017271D01*
X019254Y017228D01*
X019228Y017187D01*
X019198Y017149D01*
X019166Y017113D01*
X019131Y017080D01*
X019093Y017050D01*
X019053Y017023D01*
X019011Y017000D01*
X018967Y016980D01*
X018922Y016963D01*
X018876Y016951D01*
X018828Y016942D01*
X018780Y016937D01*
X018732Y016936D01*
X018684Y016939D01*
X018636Y016946D01*
X018589Y016957D01*
X018543Y016971D01*
X018498Y016989D01*
X018455Y017011D01*
X018414Y017036D01*
X018376Y017065D01*
X018339Y017097D01*
X018305Y017131D01*
X018275Y017168D01*
X018247Y017207D01*
X018222Y017249D01*
X018202Y017293D01*
X018184Y017338D01*
X018171Y017384D01*
X018161Y017431D01*
X018155Y017479D01*
X018153Y017527D01*
X000443Y019883D02*
X000445Y019930D01*
X000451Y019976D01*
X000461Y020022D01*
X000474Y020067D01*
X000492Y020110D01*
X000513Y020152D01*
X000537Y020192D01*
X000565Y020229D01*
X000596Y020264D01*
X000630Y020297D01*
X000666Y020326D01*
X000705Y020352D01*
X000746Y020375D01*
X000789Y020394D01*
X000833Y020410D01*
X000878Y020422D01*
X000924Y020430D01*
X000971Y020434D01*
X001017Y020434D01*
X001064Y020430D01*
X001110Y020422D01*
X001155Y020410D01*
X001199Y020394D01*
X001242Y020375D01*
X001283Y020352D01*
X001322Y020326D01*
X001358Y020297D01*
X001392Y020264D01*
X001423Y020229D01*
X001451Y020192D01*
X001475Y020152D01*
X001496Y020110D01*
X001514Y020067D01*
X001527Y020022D01*
X001537Y019976D01*
X001543Y019930D01*
X001545Y019883D01*
X001543Y019836D01*
X001537Y019790D01*
X001527Y019744D01*
X001514Y019699D01*
X001496Y019656D01*
X001475Y019614D01*
X001451Y019574D01*
X001423Y019537D01*
X001392Y019502D01*
X001358Y019469D01*
X001322Y019440D01*
X001283Y019414D01*
X001242Y019391D01*
X001199Y019372D01*
X001155Y019356D01*
X001110Y019344D01*
X001064Y019336D01*
X001017Y019332D01*
X000971Y019332D01*
X000924Y019336D01*
X000878Y019344D01*
X000833Y019356D01*
X000789Y019372D01*
X000746Y019391D01*
X000705Y019414D01*
X000666Y019440D01*
X000630Y019469D01*
X000596Y019502D01*
X000565Y019537D01*
X000537Y019574D01*
X000513Y019614D01*
X000492Y019656D01*
X000474Y019699D01*
X000461Y019744D01*
X000451Y019790D01*
X000445Y019836D01*
X000443Y019883D01*
D11*
X002171Y018895D02*
X002171Y018435D01*
X002171Y018588D02*
X002401Y018588D01*
X002478Y018665D01*
X002478Y018818D01*
X002401Y018895D01*
X002171Y018895D01*
X002325Y018588D02*
X002478Y018435D01*
X002632Y018512D02*
X002708Y018435D01*
X002862Y018435D01*
X002939Y018512D01*
X002939Y018665D01*
X002862Y018742D01*
X002785Y018742D01*
X002632Y018665D01*
X002632Y018895D01*
X002939Y018895D01*
X002668Y021153D02*
X002548Y021153D01*
X002488Y021213D01*
X002360Y021153D02*
X002120Y021514D01*
X002360Y021514D02*
X002120Y021153D01*
X002488Y021454D02*
X002548Y021514D01*
X002668Y021514D01*
X002729Y021454D01*
X002729Y021394D01*
X002668Y021333D01*
X002729Y021273D01*
X002729Y021213D01*
X002668Y021153D01*
X002668Y021333D02*
X002608Y021333D01*
X006120Y021153D02*
X006360Y021514D01*
X006488Y021454D02*
X006548Y021514D01*
X006668Y021514D01*
X006729Y021454D01*
X006729Y021394D01*
X006488Y021153D01*
X006729Y021153D01*
X006360Y021153D02*
X006120Y021514D01*
X010120Y021514D02*
X010360Y021153D01*
X010488Y021153D02*
X010729Y021153D01*
X010608Y021153D02*
X010608Y021514D01*
X010488Y021394D01*
X010360Y021514D02*
X010120Y021153D01*
X014120Y021153D02*
X014360Y021514D01*
X014488Y021514D02*
X014488Y021333D01*
X014608Y021394D01*
X014668Y021394D01*
X014729Y021333D01*
X014729Y021213D01*
X014668Y021153D01*
X014548Y021153D01*
X014488Y021213D01*
X014360Y021153D02*
X014120Y021514D01*
X014488Y021514D02*
X014729Y021514D01*
X006080Y013173D02*
X005620Y013173D01*
X005850Y012943D01*
X005850Y013250D01*
X006003Y012789D02*
X005696Y012789D01*
X006003Y012483D01*
X006080Y012559D01*
X006080Y012713D01*
X006003Y012789D01*
X006003Y012483D02*
X005696Y012483D01*
X005620Y012559D01*
X005620Y012713D01*
X005696Y012789D01*
X005620Y012329D02*
X005696Y012176D01*
X005850Y012022D01*
X005850Y012252D01*
X005927Y012329D01*
X006003Y012329D01*
X006080Y012252D01*
X006080Y012099D01*
X006003Y012022D01*
X005850Y012022D01*
X005773Y011869D02*
X005696Y011869D01*
X005620Y011792D01*
X005620Y011638D01*
X005696Y011562D01*
X005696Y011408D02*
X005620Y011332D01*
X005620Y011178D01*
X005696Y011101D01*
X005696Y010948D02*
X006003Y010641D01*
X006080Y010718D01*
X006080Y010871D01*
X006003Y010948D01*
X005696Y010948D01*
X005620Y010871D01*
X005620Y010718D01*
X005696Y010641D01*
X006003Y010641D01*
X006003Y010488D02*
X006080Y010411D01*
X006080Y010257D01*
X006003Y010181D01*
X005696Y010488D01*
X006003Y010488D01*
X005696Y010488D02*
X005620Y010411D01*
X005620Y010257D01*
X005696Y010181D01*
X006003Y010181D01*
X006003Y010027D02*
X006080Y009950D01*
X006080Y009797D01*
X006003Y009720D01*
X005696Y010027D01*
X006003Y010027D01*
X005696Y010027D02*
X005620Y009950D01*
X005620Y009797D01*
X005696Y009720D01*
X006003Y009720D01*
X006080Y009567D02*
X006080Y009260D01*
X006080Y009413D02*
X005620Y009413D01*
X005773Y009260D01*
X005773Y009106D02*
X005773Y009030D01*
X005773Y008799D01*
X005927Y008799D02*
X005927Y009106D01*
X006080Y009030D02*
X005620Y009030D01*
X005620Y008876D02*
X006080Y008876D01*
X005330Y008876D02*
X005330Y009030D01*
X005253Y009106D01*
X004946Y009106D01*
X004870Y009030D01*
X004870Y008876D01*
X004946Y008799D01*
X005253Y008799D01*
X005330Y008876D01*
X005330Y009260D02*
X004870Y009260D01*
X004870Y009490D01*
X004946Y009567D01*
X005100Y009567D01*
X005177Y009490D01*
X005177Y009260D01*
X005177Y009413D02*
X005330Y009567D01*
X005330Y009720D02*
X005330Y009950D01*
X005253Y010027D01*
X004946Y010027D01*
X004870Y009950D01*
X004870Y009720D01*
X005330Y009720D01*
X005330Y010181D02*
X004870Y010181D01*
X004870Y010488D01*
X004870Y010641D02*
X004870Y010871D01*
X004946Y010948D01*
X005100Y010948D01*
X005177Y010871D01*
X005177Y010641D01*
X005330Y010641D02*
X004870Y010641D01*
X005177Y010794D02*
X005330Y010948D01*
X005330Y010488D02*
X005330Y010181D01*
X005100Y010181D02*
X005100Y010334D01*
X006080Y011101D02*
X005773Y011408D01*
X005696Y011408D01*
X006080Y011408D02*
X006080Y011101D01*
X006080Y011562D02*
X005773Y011869D01*
X006080Y011869D02*
X006080Y011562D01*
X010593Y004364D02*
X010516Y004287D01*
X010516Y004210D01*
X010593Y004134D01*
X010746Y004134D01*
X010823Y004057D01*
X010823Y003980D01*
X010746Y003903D01*
X010593Y003903D01*
X010516Y003980D01*
X010363Y003980D02*
X010363Y003903D01*
X010286Y003903D01*
X010286Y003980D01*
X010363Y003980D01*
X010132Y003980D02*
X010056Y003903D01*
X009979Y003980D01*
X009902Y003903D01*
X009825Y003980D01*
X009825Y004210D01*
X009672Y004210D02*
X009672Y003980D01*
X009595Y003903D01*
X009519Y003980D01*
X009442Y003903D01*
X009365Y003980D01*
X009365Y004210D01*
X009212Y004210D02*
X009212Y003980D01*
X009135Y003903D01*
X009058Y003980D01*
X008981Y003903D01*
X008905Y003980D01*
X008905Y004210D01*
X010132Y004210D02*
X010132Y003980D01*
X010593Y004364D02*
X010746Y004364D01*
X010823Y004287D01*
X011053Y004210D02*
X011207Y004210D01*
X011283Y004134D01*
X011283Y003903D01*
X011053Y003903D01*
X010976Y003980D01*
X011053Y004057D01*
X011283Y004057D01*
X011437Y003980D02*
X011514Y003903D01*
X011744Y003903D01*
X011744Y004210D01*
X011897Y004364D02*
X011974Y004364D01*
X011974Y003903D01*
X011897Y003903D02*
X012051Y003903D01*
X012204Y003980D02*
X012204Y004134D01*
X012281Y004210D01*
X012434Y004210D01*
X012511Y004134D01*
X012511Y004057D01*
X012204Y004057D01*
X012204Y003980D02*
X012281Y003903D01*
X012434Y003903D01*
X012665Y004057D02*
X012818Y003903D01*
X012971Y004057D01*
X012971Y004364D01*
X013125Y004210D02*
X013202Y004210D01*
X013202Y003903D01*
X013278Y003903D02*
X013125Y003903D01*
X013432Y003903D02*
X013432Y004210D01*
X013432Y004057D02*
X013585Y004210D01*
X013662Y004210D01*
X013816Y004134D02*
X013892Y004210D01*
X014046Y004210D01*
X014122Y004134D01*
X014122Y004057D01*
X013816Y004057D01*
X013816Y003980D02*
X013816Y004134D01*
X013816Y003980D02*
X013892Y003903D01*
X014046Y003903D01*
X014276Y003903D02*
X014276Y003980D01*
X014353Y003980D01*
X014353Y003903D01*
X014276Y003903D01*
X014506Y003903D02*
X014660Y003903D01*
X014583Y003903D02*
X014583Y004364D01*
X014506Y004364D01*
X014813Y004210D02*
X014967Y004210D01*
X014890Y004287D02*
X014890Y003980D01*
X014967Y003903D01*
X013202Y004364D02*
X013202Y004440D01*
X012665Y004364D02*
X012665Y004057D01*
X011437Y003980D02*
X011437Y004210D01*
X011633Y000614D02*
X011874Y000253D01*
X012002Y000313D02*
X012062Y000253D01*
X012182Y000253D01*
X012242Y000313D01*
X012242Y000373D01*
X012182Y000433D01*
X012002Y000433D01*
X012002Y000313D01*
X012002Y000433D02*
X012122Y000554D01*
X012242Y000614D01*
X011874Y000614D02*
X011633Y000253D01*
X019370Y006167D02*
X019730Y006407D01*
X019550Y006535D02*
X019370Y006715D01*
X019730Y006715D01*
X019550Y006775D02*
X019550Y006535D01*
X019370Y006407D02*
X019730Y006167D01*
D12*
X019569Y004595D02*
X019569Y001172D01*
X015236Y001172D01*
X015236Y001938D01*
X014600Y002133D02*
X014600Y001633D01*
X014350Y001383D01*
X013850Y001383D01*
X013600Y001633D01*
X013350Y001383D01*
X012850Y001383D01*
X012600Y001633D01*
X012600Y002133D01*
X012850Y002383D01*
X013350Y002383D01*
X013600Y002133D01*
X013850Y002383D01*
X014350Y002383D01*
X014600Y002133D01*
X015236Y003828D02*
X015236Y004595D01*
X015732Y004595D01*
X017582Y004595D02*
X019569Y004595D01*
X012100Y005133D02*
X012100Y005633D01*
X009600Y005383D02*
X009600Y004883D01*
X009350Y004633D01*
X009600Y004383D01*
X009600Y003883D01*
X009350Y003633D01*
X009600Y003383D01*
X009600Y002883D01*
X009350Y002633D01*
X009600Y002383D01*
X009600Y001883D01*
X009350Y001633D01*
X008850Y001633D01*
X008600Y001883D01*
X008600Y002383D01*
X008350Y002633D01*
X007850Y002633D01*
X007600Y002383D01*
X007350Y002633D01*
X006850Y002633D01*
X006600Y002383D01*
X006350Y002633D01*
X005850Y002633D01*
X005600Y002383D01*
X005600Y001883D01*
X005850Y001633D01*
X006350Y001633D01*
X006600Y001883D01*
X006850Y001633D01*
X007350Y001633D01*
X007600Y001883D01*
X007850Y001633D01*
X008350Y001633D01*
X008600Y001883D01*
X008600Y002383D01*
X008850Y002633D01*
X008600Y002883D01*
X008600Y003383D01*
X008850Y003633D01*
X008600Y003883D01*
X008600Y004383D01*
X008850Y004633D01*
X008600Y004883D01*
X008600Y005383D01*
X008850Y005633D01*
X008600Y005883D01*
X008600Y006383D01*
X008850Y006633D01*
X008600Y006883D01*
X008600Y007383D01*
X008850Y007633D01*
X008600Y007883D01*
X008600Y008383D01*
X008600Y008883D01*
X008350Y009133D01*
X008600Y009383D01*
X008600Y009883D01*
X008350Y010133D01*
X007850Y010133D01*
X007600Y009883D01*
X007600Y009383D01*
X007850Y009133D01*
X007600Y008883D01*
X007600Y008383D01*
X007850Y008133D01*
X008350Y008133D01*
X008600Y008383D01*
X008850Y008633D01*
X008600Y008883D01*
X008600Y009383D01*
X008850Y009633D01*
X008600Y009883D01*
X008600Y010383D01*
X008850Y010633D01*
X008600Y010883D01*
X008600Y011383D01*
X008850Y011633D01*
X008600Y011883D01*
X008600Y012383D01*
X008850Y012633D01*
X008600Y012883D01*
X008600Y013383D01*
X008850Y013633D01*
X008350Y013633D01*
X008100Y013883D01*
X007850Y013633D01*
X007350Y013633D01*
X007100Y013883D01*
X006850Y013633D01*
X006350Y013633D01*
X006100Y013883D01*
X005850Y013633D01*
X005350Y013633D01*
X005100Y013883D01*
X004850Y013633D01*
X004350Y013633D01*
X004100Y013883D01*
X003850Y013633D01*
X003350Y013633D01*
X003100Y013883D01*
X003100Y014383D01*
X003350Y014633D01*
X003850Y014633D01*
X004100Y014383D01*
X004350Y014633D01*
X004850Y014633D01*
X005100Y014383D01*
X005350Y014633D01*
X005850Y014633D01*
X006100Y014383D01*
X006350Y014633D01*
X006850Y014633D01*
X007100Y014383D01*
X007350Y014633D01*
X007850Y014633D01*
X008100Y014383D01*
X008350Y014633D01*
X008850Y014633D01*
X009100Y014383D01*
X009100Y013883D01*
X008850Y013633D01*
X009350Y013633D01*
X009600Y013383D01*
X009600Y012883D01*
X009350Y012633D01*
X009600Y012383D01*
X009600Y011883D01*
X009350Y011633D01*
X009600Y011383D01*
X009600Y010883D01*
X009350Y010633D01*
X009600Y010383D01*
X009600Y009883D01*
X009350Y009633D01*
X009600Y009383D01*
X009600Y008883D01*
X009350Y008633D01*
X009600Y008383D01*
X009600Y007883D01*
X009350Y007633D01*
X009600Y007383D01*
X009600Y006883D01*
X009350Y006633D01*
X009600Y006383D01*
X009600Y005883D01*
X009350Y005633D01*
X009600Y005383D01*
X003600Y005383D02*
X003600Y004883D01*
X003350Y004633D01*
X003600Y004383D01*
X003600Y003883D01*
X003350Y003633D01*
X003600Y003383D01*
X003600Y002883D01*
X003350Y002633D01*
X003600Y002383D01*
X003600Y001883D01*
X003350Y001633D01*
X002850Y001633D01*
X002600Y001883D01*
X002600Y002383D01*
X002850Y002633D01*
X002600Y002883D01*
X002600Y003383D01*
X002850Y003633D01*
X002600Y003883D01*
X002600Y004383D01*
X002850Y004633D01*
X002600Y004883D01*
X002600Y005383D01*
X002850Y005633D01*
X002600Y005883D01*
X002600Y006383D01*
X002850Y006633D01*
X002600Y006883D01*
X002600Y007383D01*
X002850Y007633D01*
X002600Y007883D01*
X002600Y008383D01*
X002850Y008633D01*
X002600Y008883D01*
X002600Y009383D01*
X002850Y009633D01*
X002600Y009883D01*
X002600Y010383D01*
X002850Y010633D01*
X002600Y010883D01*
X002600Y011383D01*
X002850Y011633D01*
X002600Y011883D01*
X002600Y012383D01*
X002850Y012633D01*
X002600Y012883D01*
X002600Y013383D01*
X002850Y013633D01*
X003350Y013633D01*
X003600Y013383D01*
X003600Y012883D01*
X003350Y012633D01*
X003600Y012383D01*
X003600Y011883D01*
X003350Y011633D01*
X003600Y011383D01*
X003600Y010883D01*
X003350Y010633D01*
X003600Y010383D01*
X003600Y009883D01*
X003350Y009633D01*
X003600Y009383D01*
X003600Y008883D01*
X003350Y008633D01*
X003600Y008383D01*
X003600Y007883D01*
X003350Y007633D01*
X003600Y007383D01*
X003600Y006883D01*
X003350Y006633D01*
X003600Y006383D01*
X003600Y005883D01*
X003350Y005633D01*
X003600Y005383D01*
X001600Y005133D02*
X001350Y004883D01*
X001600Y004633D01*
X001600Y004133D01*
X001350Y003883D01*
X001600Y003633D01*
X001600Y003133D01*
X001350Y002883D01*
X000850Y002883D01*
X000600Y003133D01*
X000600Y003633D01*
X000850Y003883D01*
X000600Y004133D01*
X000600Y004633D01*
X000850Y004883D01*
X000600Y005133D01*
X000600Y005633D01*
X000850Y005883D01*
X000600Y006133D01*
X000600Y006633D01*
X000850Y006883D01*
X000600Y007133D01*
X000600Y007633D01*
X000850Y007883D01*
X000600Y008133D01*
X000600Y008633D01*
X000850Y008883D01*
X000600Y009133D01*
X000600Y009633D01*
X000850Y009883D01*
X000600Y010133D01*
X000600Y010633D01*
X000850Y010883D01*
X000600Y011133D01*
X000600Y011633D01*
X000850Y011883D01*
X000600Y012133D01*
X000600Y012633D01*
X000850Y012883D01*
X000600Y013133D01*
X000600Y013633D01*
X000850Y013883D01*
X000600Y014133D01*
X000600Y014633D01*
X000850Y014883D01*
X000600Y015133D01*
X000600Y015633D01*
X000850Y015883D01*
X000600Y016133D01*
X000600Y016633D01*
X000850Y016883D01*
X000600Y017133D01*
X000600Y017633D01*
X000850Y017883D01*
X000600Y018133D01*
X000600Y018633D01*
X000850Y018883D01*
X001350Y018883D01*
X001600Y018633D01*
X001600Y018133D01*
X001350Y017883D01*
X001600Y017633D01*
X001600Y017133D01*
X001350Y016883D01*
X001600Y016633D01*
X001600Y016133D01*
X001350Y015883D01*
X001600Y015633D01*
X001600Y015133D01*
X001350Y014883D01*
X001600Y014633D01*
X001600Y014133D01*
X001350Y013883D01*
X001600Y013633D01*
X001600Y013133D01*
X001350Y012883D01*
X001600Y012633D01*
X001600Y012133D01*
X001350Y011883D01*
X001600Y011633D01*
X001600Y011133D01*
X001350Y010883D01*
X001600Y010633D01*
X001600Y010133D01*
X001350Y009883D01*
X001600Y009633D01*
X001600Y009133D01*
X001350Y008883D01*
X001600Y008633D01*
X001600Y008133D01*
X001350Y007883D01*
X001600Y007633D01*
X001600Y007133D01*
X001350Y006883D01*
X001600Y006633D01*
X001600Y006133D01*
X001350Y005883D01*
X001600Y005633D01*
X001600Y005133D01*
D13*
X001905Y005158D02*
X001905Y005383D01*
X001980Y005458D01*
X002130Y005458D01*
X002205Y005383D01*
X002205Y005158D01*
X002355Y005158D02*
X001905Y005158D01*
X001905Y005618D02*
X001905Y005844D01*
X001980Y005919D01*
X002130Y005919D01*
X002205Y005844D01*
X002205Y005618D01*
X002355Y005618D02*
X001905Y005618D01*
X002205Y005769D02*
X002355Y005919D01*
X002280Y006079D02*
X002355Y006154D01*
X002355Y006304D01*
X002280Y006379D01*
X001980Y006379D01*
X001905Y006304D01*
X001905Y006154D01*
X001980Y006079D01*
X002280Y006079D01*
X002430Y006539D02*
X002430Y006839D01*
X002355Y007000D02*
X001905Y007000D01*
X002055Y007150D01*
X001905Y007300D01*
X002355Y007300D01*
X002355Y007460D02*
X002355Y007610D01*
X002355Y007535D02*
X001905Y007535D01*
X001905Y007460D02*
X001905Y007610D01*
X001905Y007767D02*
X002355Y008067D01*
X001905Y008067D01*
X001905Y008227D02*
X001905Y008377D01*
X001905Y008302D02*
X002355Y008302D01*
X002355Y008227D02*
X002355Y008377D01*
X002430Y008534D02*
X002430Y008834D01*
X002355Y008995D02*
X002355Y009295D01*
X002355Y009145D02*
X001905Y009145D01*
X002055Y008995D01*
X001905Y007767D02*
X002355Y007767D01*
X004475Y005048D02*
X004925Y005048D01*
X004925Y004898D02*
X004925Y005198D01*
X004625Y004898D02*
X004475Y005048D01*
X004550Y004738D02*
X004475Y004663D01*
X004475Y004438D01*
X004925Y004438D01*
X004775Y004438D02*
X004775Y004663D01*
X004700Y004738D01*
X004550Y004738D01*
X004775Y004588D02*
X004925Y004738D01*
X005275Y004684D02*
X005275Y004458D01*
X005725Y004458D01*
X005575Y004458D02*
X005575Y004684D01*
X005500Y004759D01*
X005350Y004759D01*
X005275Y004684D01*
X005350Y004919D02*
X005275Y004994D01*
X005275Y005144D01*
X005350Y005219D01*
X005425Y005219D01*
X005725Y004919D01*
X005725Y005219D01*
X005725Y004759D02*
X005575Y004608D01*
X006475Y004663D02*
X006475Y004438D01*
X006925Y004438D01*
X006775Y004438D02*
X006775Y004663D01*
X006700Y004738D01*
X006550Y004738D01*
X006475Y004663D01*
X006550Y004898D02*
X006475Y004973D01*
X006475Y005123D01*
X006550Y005198D01*
X006625Y005198D01*
X006700Y005123D01*
X006775Y005198D01*
X006850Y005198D01*
X006925Y005123D01*
X006925Y004973D01*
X006850Y004898D01*
X006925Y004738D02*
X006775Y004588D01*
X006700Y005048D02*
X006700Y005123D01*
X007475Y005123D02*
X007700Y004898D01*
X007700Y005198D01*
X007925Y005123D02*
X007475Y005123D01*
X007550Y004738D02*
X007475Y004663D01*
X007475Y004438D01*
X007925Y004438D01*
X007775Y004438D02*
X007775Y004663D01*
X007700Y004738D01*
X007550Y004738D01*
X007775Y004588D02*
X007925Y004738D01*
X006741Y003329D02*
X006516Y003104D01*
X006816Y003104D01*
X006741Y003329D02*
X006741Y002878D01*
X006356Y003104D02*
X006281Y003028D01*
X006055Y003028D01*
X006055Y002878D02*
X006055Y003329D01*
X006281Y003329D01*
X006356Y003254D01*
X006356Y003104D01*
X005895Y003329D02*
X005745Y003329D01*
X005820Y003329D02*
X005820Y002953D01*
X005745Y002878D01*
X005670Y002878D01*
X005595Y002953D01*
X002355Y003085D02*
X002280Y003010D01*
X001905Y003010D01*
X001980Y002849D02*
X001905Y002774D01*
X001905Y002549D01*
X002355Y002549D01*
X002355Y002774D01*
X002280Y002849D01*
X001980Y002849D01*
X002355Y003085D02*
X002355Y003235D01*
X002280Y003310D01*
X001905Y003310D01*
X001905Y003470D02*
X001905Y003620D01*
X001905Y003545D02*
X002355Y003545D01*
X002355Y003470D02*
X002355Y003620D01*
X002355Y003777D02*
X001905Y003777D01*
X002355Y004077D01*
X001905Y004077D01*
X001980Y004237D02*
X002280Y004237D01*
X002355Y004312D01*
X002355Y004462D01*
X002280Y004537D01*
X001980Y004537D01*
X001905Y004462D01*
X001905Y004312D01*
X001980Y004237D01*
X002430Y004698D02*
X002430Y004998D01*
X002355Y002389D02*
X002205Y002239D01*
X002205Y002314D02*
X002205Y002089D01*
X002355Y002089D02*
X001905Y002089D01*
X001905Y002314D01*
X001980Y002389D01*
X002130Y002389D01*
X002205Y002314D01*
X002130Y001929D02*
X002130Y001628D01*
X002055Y001628D02*
X001905Y001778D01*
X002055Y001929D01*
X002355Y001929D01*
X002355Y001628D02*
X002055Y001628D01*
X007280Y008128D02*
X007355Y008203D01*
X007355Y008278D01*
X007280Y008354D01*
X006905Y008354D01*
X006905Y008429D02*
X006905Y008278D01*
X006905Y008589D02*
X006905Y008814D01*
X006980Y008889D01*
X007130Y008889D01*
X007205Y008814D01*
X007205Y008589D01*
X007355Y008589D02*
X006905Y008589D01*
X006980Y009049D02*
X006905Y009124D01*
X006905Y009274D01*
X006980Y009349D01*
X007055Y009349D01*
X007355Y009049D01*
X007355Y009349D01*
X009845Y009391D02*
X009845Y009617D01*
X009920Y009692D01*
X010070Y009692D01*
X010145Y009617D01*
X010145Y009391D01*
X010295Y009391D02*
X009845Y009391D01*
X009845Y009852D02*
X009845Y010077D01*
X009920Y010152D01*
X010070Y010152D01*
X010145Y010077D01*
X010145Y009852D01*
X010145Y010002D02*
X010295Y010152D01*
X010220Y010312D02*
X010295Y010387D01*
X010295Y010537D01*
X010220Y010612D01*
X009920Y010612D01*
X009845Y010537D01*
X009845Y010387D01*
X009920Y010312D01*
X010220Y010312D01*
X010295Y009852D02*
X009845Y009852D01*
X010370Y009231D02*
X010370Y008931D01*
X010220Y008771D02*
X009920Y008771D01*
X009845Y008696D01*
X009845Y008546D01*
X009920Y008471D01*
X010220Y008471D01*
X010295Y008546D01*
X010295Y008696D01*
X010220Y008771D01*
X010295Y008310D02*
X009845Y008310D01*
X009845Y008010D02*
X010295Y008310D01*
X010295Y008010D02*
X009845Y008010D01*
X009845Y007853D02*
X009845Y007703D01*
X009845Y007778D02*
X010295Y007778D01*
X010295Y007703D02*
X010295Y007853D01*
X010220Y007543D02*
X009845Y007543D01*
X009845Y007243D02*
X010220Y007243D01*
X010295Y007318D01*
X010295Y007468D01*
X010220Y007543D01*
X010220Y007083D02*
X009920Y007083D01*
X009845Y007008D01*
X009845Y006782D01*
X010295Y006782D01*
X010295Y007008D01*
X010220Y007083D01*
X010295Y006622D02*
X010145Y006472D01*
X010145Y006547D02*
X010145Y006322D01*
X010295Y006322D02*
X009845Y006322D01*
X009845Y006547D01*
X009920Y006622D01*
X010070Y006622D01*
X010145Y006547D01*
X010070Y006162D02*
X010070Y005862D01*
X009995Y005862D02*
X009845Y006012D01*
X009995Y006162D01*
X010295Y006162D01*
X010295Y005862D02*
X009995Y005862D01*
X012275Y008458D02*
X012275Y008684D01*
X012350Y008759D01*
X012500Y008759D01*
X012575Y008684D01*
X012575Y008458D01*
X012725Y008458D02*
X012275Y008458D01*
X012575Y008608D02*
X012725Y008759D01*
X012650Y008919D02*
X012725Y008994D01*
X012725Y009144D01*
X012650Y009219D01*
X012575Y009219D01*
X012500Y009144D01*
X012500Y008919D01*
X012650Y008919D01*
X012500Y008919D02*
X012350Y009069D01*
X012275Y009219D01*
X010370Y010772D02*
X010370Y011073D01*
X010295Y011233D02*
X009845Y011233D01*
X009995Y011383D01*
X009845Y011533D01*
X010295Y011533D01*
X010295Y011693D02*
X010295Y011843D01*
X010295Y011768D02*
X009845Y011768D01*
X009845Y011693D02*
X009845Y011843D01*
X009845Y012000D02*
X010295Y012300D01*
X009845Y012300D01*
X009845Y012461D02*
X009845Y012611D01*
X009845Y012536D02*
X010295Y012536D01*
X010295Y012461D02*
X010295Y012611D01*
X010370Y012768D02*
X010370Y013068D01*
X010275Y012958D02*
X010275Y013184D01*
X010350Y013259D01*
X010500Y013259D01*
X010575Y013184D01*
X010575Y012958D01*
X010675Y012894D02*
X010675Y012744D01*
X010750Y012669D01*
X010750Y012509D02*
X010675Y012434D01*
X010675Y012283D01*
X010750Y012208D01*
X010825Y012208D01*
X010900Y012283D01*
X010900Y012434D01*
X010975Y012509D01*
X011050Y012509D01*
X011125Y012434D01*
X011125Y012283D01*
X011050Y012208D01*
X011050Y012669D02*
X011125Y012744D01*
X011125Y012894D01*
X011050Y012969D01*
X010975Y012969D01*
X010900Y012894D01*
X010900Y012819D01*
X010900Y012894D02*
X010825Y012969D01*
X010750Y012969D01*
X010675Y012894D01*
X010725Y012958D02*
X010275Y012958D01*
X010295Y013228D02*
X009995Y013528D01*
X009920Y013528D01*
X009845Y013453D01*
X009845Y013303D01*
X009920Y013228D01*
X010295Y013228D02*
X010295Y013528D01*
X010275Y013419D02*
X010275Y013719D01*
X010350Y013719D01*
X010650Y013419D01*
X010725Y013419D01*
X010725Y013259D02*
X010575Y013108D01*
X010295Y012000D02*
X009845Y012000D01*
X009840Y015308D02*
X009690Y015308D01*
X009615Y015383D01*
X009915Y015684D01*
X009915Y015383D01*
X009840Y015308D01*
X009615Y015383D02*
X009615Y015684D01*
X009690Y015759D01*
X009840Y015759D01*
X009915Y015684D01*
X009861Y016258D02*
X009710Y016258D01*
X009635Y016333D01*
X009710Y016484D02*
X009936Y016484D01*
X009936Y016634D02*
X009936Y016333D01*
X009861Y016258D01*
X009710Y016484D02*
X009635Y016559D01*
X009635Y016634D01*
X009710Y016709D01*
X009861Y016709D01*
X009936Y016634D01*
X009475Y016634D02*
X009475Y016484D01*
X009400Y016408D01*
X009175Y016408D01*
X009175Y016258D02*
X009175Y016709D01*
X009400Y016709D01*
X009475Y016634D01*
X009325Y016408D02*
X009475Y016258D01*
X009304Y015759D02*
X009304Y015308D01*
X009154Y015308D02*
X009454Y015308D01*
X009154Y015609D02*
X009304Y015759D01*
X008994Y015684D02*
X008994Y015534D01*
X008919Y015458D01*
X008694Y015458D01*
X008694Y015308D02*
X008694Y015759D01*
X008919Y015759D01*
X008994Y015684D01*
X008844Y015458D02*
X008994Y015308D01*
X008904Y017058D02*
X008904Y017509D01*
X009129Y017509D01*
X009204Y017434D01*
X009204Y017284D01*
X009129Y017208D01*
X008904Y017208D01*
X009054Y017208D02*
X009204Y017058D01*
X009365Y017133D02*
X009365Y017208D01*
X009440Y017284D01*
X009590Y017284D01*
X009665Y017208D01*
X009665Y017133D01*
X009590Y017058D01*
X009440Y017058D01*
X009365Y017133D01*
X009440Y017284D02*
X009365Y017359D01*
X009365Y017434D01*
X009440Y017509D01*
X009590Y017509D01*
X009665Y017434D01*
X009665Y017359D01*
X009590Y017284D01*
X004316Y014878D02*
X004016Y014878D01*
X004166Y014878D02*
X004166Y015329D01*
X004016Y015179D01*
X003856Y015254D02*
X003856Y015104D01*
X003781Y015028D01*
X003555Y015028D01*
X003555Y014878D02*
X003555Y015329D01*
X003781Y015329D01*
X003856Y015254D01*
X003395Y015329D02*
X003245Y015329D01*
X003320Y015329D02*
X003320Y014953D01*
X003245Y014878D01*
X003170Y014878D01*
X003095Y014953D01*
X002910Y014630D02*
X002969Y014650D01*
X003026Y014673D01*
X003083Y014700D01*
X003137Y014731D01*
X003190Y014764D01*
X003240Y014801D01*
X003289Y014840D01*
X003334Y014883D01*
X003378Y014928D01*
X003418Y014975D01*
X003456Y015025D01*
X003491Y015077D01*
X003522Y015131D01*
X003550Y015186D01*
X003575Y015243D01*
X003596Y015302D01*
X003614Y015362D01*
X003629Y015423D01*
X003639Y015484D01*
X003646Y015546D01*
X003650Y015608D01*
X003649Y015671D01*
X003645Y015733D01*
X003487Y015733D01*
X003425Y016283D02*
X001775Y016283D01*
X001845Y016251D02*
X001845Y016401D01*
X001920Y016476D01*
X001845Y016636D02*
X001845Y016862D01*
X001920Y016937D01*
X002220Y016937D01*
X002295Y016862D01*
X002295Y016636D01*
X001845Y016636D01*
X002220Y016476D02*
X002295Y016401D01*
X002295Y016251D01*
X002220Y016176D01*
X001920Y016176D01*
X001845Y016251D01*
X002295Y016016D02*
X002295Y015716D01*
X001845Y015716D01*
X001713Y015733D02*
X001555Y015733D01*
X001065Y015359D02*
X001065Y014908D01*
X000915Y014908D02*
X001215Y014908D01*
X000915Y015209D02*
X001065Y015359D01*
X000754Y015359D02*
X000454Y015359D01*
X000604Y015359D02*
X000604Y014908D01*
X002487Y015733D02*
X002713Y015733D01*
X003425Y016283D02*
X003460Y016235D01*
X003493Y016185D01*
X003524Y016133D01*
X003551Y016079D01*
X003575Y016024D01*
X003595Y015967D01*
X003613Y015910D01*
X003627Y015852D01*
X003638Y015793D01*
X003645Y015733D01*
X002290Y014630D02*
X002230Y014650D01*
X002171Y014674D01*
X002114Y014702D01*
X002059Y014733D01*
X002005Y014768D01*
X001954Y014805D01*
X001905Y014846D01*
X001859Y014890D01*
X001815Y014936D01*
X001774Y014985D01*
X001736Y015036D01*
X001702Y015089D01*
X001670Y015145D01*
X001643Y015202D01*
X001618Y015261D01*
X001598Y015321D01*
X001580Y015382D01*
X001567Y015444D01*
X001558Y015507D01*
X001552Y015570D01*
X001550Y015634D01*
X001552Y015698D01*
X001558Y015761D01*
X001567Y015824D01*
X001581Y015886D01*
X001598Y015947D01*
X001619Y016007D01*
X001643Y016066D01*
X001671Y016123D01*
X001703Y016179D01*
X001738Y016232D01*
X001775Y016283D01*
X001995Y017097D02*
X001845Y017247D01*
X002295Y017247D01*
X002295Y017097D02*
X002295Y017397D01*
X002220Y017557D02*
X002295Y017632D01*
X002295Y017782D01*
X002220Y017857D01*
X002145Y017857D01*
X002070Y017782D01*
X002070Y017557D01*
X002220Y017557D01*
X002070Y017557D02*
X001920Y017707D01*
X001845Y017857D01*
X001920Y018018D02*
X001845Y018093D01*
X001845Y018243D01*
X001920Y018318D01*
X002220Y018018D01*
X002295Y018093D01*
X002295Y018243D01*
X002220Y018318D01*
X001920Y018318D01*
X001920Y018478D02*
X001845Y018553D01*
X001845Y018703D01*
X001920Y018778D01*
X001995Y018778D01*
X002295Y018478D01*
X002295Y018778D01*
X002220Y018018D02*
X001920Y018018D01*
X015654Y008584D02*
X015654Y008509D01*
X015729Y008434D01*
X015879Y008434D01*
X015954Y008358D01*
X015954Y008283D01*
X015879Y008208D01*
X015729Y008208D01*
X015654Y008283D01*
X015654Y008584D02*
X015729Y008659D01*
X015879Y008659D01*
X015954Y008584D01*
X016115Y008434D02*
X016415Y008434D01*
X016340Y008659D02*
X016340Y008208D01*
X016115Y008434D02*
X016340Y008659D01*
X017275Y007748D02*
X017275Y007448D01*
X017275Y007598D02*
X016825Y007598D01*
X016975Y007448D01*
X016900Y007288D02*
X016825Y007213D01*
X016825Y007063D01*
X016900Y006988D01*
X017200Y006988D01*
X017275Y007063D01*
X017275Y007213D01*
X017200Y007288D01*
X017275Y006831D02*
X017275Y006681D01*
X017275Y006756D02*
X016825Y006756D01*
X016825Y006681D02*
X016825Y006831D01*
X014241Y001579D02*
X014316Y001504D01*
X014316Y001429D01*
X014241Y001354D01*
X014316Y001278D01*
X014316Y001203D01*
X014241Y001128D01*
X014091Y001128D01*
X014016Y001203D01*
X014166Y001354D02*
X014241Y001354D01*
X014241Y001579D02*
X014091Y001579D01*
X014016Y001504D01*
X013856Y001504D02*
X013856Y001354D01*
X013781Y001278D01*
X013555Y001278D01*
X013555Y001128D02*
X013555Y001579D01*
X013781Y001579D01*
X013856Y001504D01*
X013395Y001579D02*
X013245Y001579D01*
X013320Y001579D02*
X013320Y001203D01*
X013245Y001128D01*
X013170Y001128D01*
X013095Y001203D01*
X016250Y012208D02*
X016325Y012208D01*
X016400Y012283D01*
X016400Y012434D01*
X016475Y012509D01*
X016550Y012509D01*
X016625Y012434D01*
X016625Y012283D01*
X016550Y012208D01*
X016250Y012208D02*
X016175Y012283D01*
X016175Y012434D01*
X016250Y012509D01*
X016250Y012669D02*
X016175Y012744D01*
X016175Y012894D01*
X016250Y012969D01*
X016325Y012969D01*
X016625Y012669D01*
X016625Y012969D01*
X016900Y013688D02*
X016975Y013688D01*
X017050Y013763D01*
X017050Y013913D01*
X017125Y013988D01*
X017200Y013988D01*
X017275Y013913D01*
X017275Y013763D01*
X017200Y013688D01*
X016900Y013688D02*
X016825Y013763D01*
X016825Y013913D01*
X016900Y013988D01*
X016825Y014148D02*
X017050Y014148D01*
X016975Y014298D01*
X016975Y014373D01*
X017050Y014448D01*
X017200Y014448D01*
X017275Y014373D01*
X017275Y014223D01*
X017200Y014148D01*
X016825Y014148D02*
X016825Y014448D01*
X016979Y016458D02*
X016904Y016533D01*
X016979Y016458D02*
X017129Y016458D01*
X017204Y016533D01*
X017204Y016608D01*
X017129Y016684D01*
X016979Y016684D01*
X016904Y016759D01*
X016904Y016834D01*
X016979Y016909D01*
X017129Y016909D01*
X017204Y016834D01*
X017365Y016759D02*
X017515Y016909D01*
X017515Y016458D01*
X017365Y016458D02*
X017665Y016458D01*
D14*
X016650Y016333D02*
X016650Y016933D01*
X016550Y016933D01*
X016550Y017033D01*
X016550Y016333D02*
X016550Y016233D01*
X016550Y016333D02*
X016650Y016333D01*
X016200Y015433D02*
X015850Y015433D01*
X014850Y015433D01*
X014500Y015433D01*
X015050Y014683D02*
X015050Y014583D01*
X014950Y014583D01*
X015050Y014683D02*
X015650Y014683D01*
X015650Y014583D01*
X015750Y014583D01*
X016550Y014233D02*
X016550Y013883D01*
X016550Y012883D01*
X016550Y012533D01*
X016900Y012533D02*
X016900Y012883D01*
X016900Y013883D01*
X016900Y014233D01*
X017700Y014583D02*
X017800Y014583D01*
X017800Y014683D01*
X018400Y014683D01*
X018400Y014583D01*
X018500Y014583D01*
X019300Y014233D02*
X019300Y013833D01*
X019300Y012883D01*
X019300Y012533D01*
X018500Y012183D02*
X018400Y012183D01*
X018400Y012083D01*
X017800Y012083D01*
X017800Y012183D01*
X017700Y012183D01*
X018000Y013383D02*
X018002Y013403D01*
X018008Y013421D01*
X018017Y013439D01*
X018029Y013454D01*
X018044Y013466D01*
X018062Y013475D01*
X018080Y013481D01*
X018100Y013483D01*
X018120Y013481D01*
X018138Y013475D01*
X018156Y013466D01*
X018171Y013454D01*
X018183Y013439D01*
X018192Y013421D01*
X018198Y013403D01*
X018200Y013383D01*
X018198Y013363D01*
X018192Y013345D01*
X018183Y013327D01*
X018171Y013312D01*
X018156Y013300D01*
X018138Y013291D01*
X018120Y013285D01*
X018100Y013283D01*
X018080Y013285D01*
X018062Y013291D01*
X018044Y013300D01*
X018029Y013312D01*
X018017Y013327D01*
X018008Y013345D01*
X018002Y013363D01*
X018000Y013383D01*
X017400Y013383D02*
X017402Y013435D01*
X017408Y013487D01*
X017418Y013539D01*
X017431Y013589D01*
X017448Y013639D01*
X017469Y013687D01*
X017494Y013733D01*
X017522Y013777D01*
X017553Y013819D01*
X017587Y013859D01*
X017624Y013896D01*
X017664Y013930D01*
X017706Y013961D01*
X017750Y013989D01*
X017796Y014014D01*
X017844Y014035D01*
X017894Y014052D01*
X017944Y014065D01*
X017996Y014075D01*
X018048Y014081D01*
X018100Y014083D01*
X018152Y014081D01*
X018204Y014075D01*
X018256Y014065D01*
X018306Y014052D01*
X018356Y014035D01*
X018404Y014014D01*
X018450Y013989D01*
X018494Y013961D01*
X018536Y013930D01*
X018576Y013896D01*
X018613Y013859D01*
X018647Y013819D01*
X018678Y013777D01*
X018706Y013733D01*
X018731Y013687D01*
X018752Y013639D01*
X018769Y013589D01*
X018782Y013539D01*
X018792Y013487D01*
X018798Y013435D01*
X018800Y013383D01*
X018798Y013331D01*
X018792Y013279D01*
X018782Y013227D01*
X018769Y013177D01*
X018752Y013127D01*
X018731Y013079D01*
X018706Y013033D01*
X018678Y012989D01*
X018647Y012947D01*
X018613Y012907D01*
X018576Y012870D01*
X018536Y012836D01*
X018494Y012805D01*
X018450Y012777D01*
X018404Y012752D01*
X018356Y012731D01*
X018306Y012714D01*
X018256Y012701D01*
X018204Y012691D01*
X018152Y012685D01*
X018100Y012683D01*
X018048Y012685D01*
X017996Y012691D01*
X017944Y012701D01*
X017894Y012714D01*
X017844Y012731D01*
X017796Y012752D01*
X017750Y012777D01*
X017706Y012805D01*
X017664Y012836D01*
X017624Y012870D01*
X017587Y012907D01*
X017553Y012947D01*
X017522Y012989D01*
X017494Y013033D01*
X017469Y013079D01*
X017448Y013127D01*
X017431Y013177D01*
X017418Y013227D01*
X017408Y013279D01*
X017402Y013331D01*
X017400Y013383D01*
X015750Y012183D02*
X015650Y012183D01*
X015650Y012083D01*
X015050Y012083D01*
X015050Y012183D01*
X014950Y012183D01*
X014900Y011333D02*
X014500Y011333D01*
X014900Y011333D02*
X015850Y011333D01*
X016200Y011333D01*
X016550Y010533D02*
X016550Y010433D01*
X016650Y010433D01*
X016650Y009833D01*
X016550Y009833D01*
X016550Y009733D01*
X016200Y008933D02*
X015850Y008933D01*
X014850Y008933D01*
X014500Y008933D01*
X014150Y009733D02*
X014150Y009833D01*
X014050Y009833D01*
X014050Y010433D01*
X014150Y010433D01*
X014150Y010533D01*
X013050Y010633D02*
X013050Y010783D01*
X013048Y010800D01*
X013044Y010817D01*
X013037Y010833D01*
X013027Y010847D01*
X013014Y010860D01*
X013000Y010870D01*
X012984Y010877D01*
X012967Y010881D01*
X012950Y010883D01*
X012250Y010883D01*
X012233Y010881D01*
X012216Y010877D01*
X012200Y010870D01*
X012186Y010860D01*
X012173Y010847D01*
X012163Y010833D01*
X012156Y010817D01*
X012152Y010800D01*
X012150Y010783D01*
X012150Y010633D01*
X012200Y010583D01*
X012200Y008683D01*
X012150Y008633D01*
X012150Y008483D01*
X012152Y008466D01*
X012156Y008449D01*
X012163Y008433D01*
X012173Y008419D01*
X012186Y008406D01*
X012200Y008396D01*
X012216Y008389D01*
X012233Y008385D01*
X012250Y008383D01*
X012950Y008383D01*
X012967Y008385D01*
X012984Y008389D01*
X013000Y008396D01*
X013014Y008406D01*
X013027Y008419D01*
X013037Y008433D01*
X013044Y008449D01*
X013048Y008466D01*
X013050Y008483D01*
X013050Y008633D01*
X013000Y008683D01*
X013000Y010583D01*
X013050Y010633D01*
X011850Y009633D02*
X011850Y009133D01*
X011600Y008883D01*
X010100Y008883D01*
X009850Y009133D01*
X009850Y009633D01*
X010100Y009883D01*
X011600Y009883D01*
X011850Y009633D01*
X011600Y008883D02*
X011850Y008633D01*
X011850Y008133D01*
X011600Y007883D01*
X010100Y007883D01*
X009850Y008133D01*
X009850Y008633D01*
X010100Y008883D01*
X010100Y007883D02*
X009850Y007633D01*
X009850Y007133D01*
X010100Y006883D01*
X011600Y006883D01*
X011850Y007133D01*
X011850Y007633D01*
X011600Y007883D01*
X011600Y006883D02*
X011850Y006633D01*
X011850Y006133D01*
X011600Y005883D01*
X010100Y005883D01*
X009850Y006133D01*
X009850Y006633D01*
X010100Y006883D01*
X010100Y005883D02*
X009850Y005633D01*
X009850Y005133D01*
X010100Y004883D01*
X011600Y004883D01*
X011850Y005133D01*
X011850Y005633D01*
X011600Y005883D01*
X014419Y005653D02*
X014419Y008113D01*
X015781Y008113D01*
X015781Y005653D01*
X014419Y005653D01*
X015250Y010133D02*
X015252Y010153D01*
X015258Y010171D01*
X015267Y010189D01*
X015279Y010204D01*
X015294Y010216D01*
X015312Y010225D01*
X015330Y010231D01*
X015350Y010233D01*
X015370Y010231D01*
X015388Y010225D01*
X015406Y010216D01*
X015421Y010204D01*
X015433Y010189D01*
X015442Y010171D01*
X015448Y010153D01*
X015450Y010133D01*
X015448Y010113D01*
X015442Y010095D01*
X015433Y010077D01*
X015421Y010062D01*
X015406Y010050D01*
X015388Y010041D01*
X015370Y010035D01*
X015350Y010033D01*
X015330Y010035D01*
X015312Y010041D01*
X015294Y010050D01*
X015279Y010062D01*
X015267Y010077D01*
X015258Y010095D01*
X015252Y010113D01*
X015250Y010133D01*
X014650Y010133D02*
X014652Y010185D01*
X014658Y010237D01*
X014668Y010289D01*
X014681Y010339D01*
X014698Y010389D01*
X014719Y010437D01*
X014744Y010483D01*
X014772Y010527D01*
X014803Y010569D01*
X014837Y010609D01*
X014874Y010646D01*
X014914Y010680D01*
X014956Y010711D01*
X015000Y010739D01*
X015046Y010764D01*
X015094Y010785D01*
X015144Y010802D01*
X015194Y010815D01*
X015246Y010825D01*
X015298Y010831D01*
X015350Y010833D01*
X015402Y010831D01*
X015454Y010825D01*
X015506Y010815D01*
X015556Y010802D01*
X015606Y010785D01*
X015654Y010764D01*
X015700Y010739D01*
X015744Y010711D01*
X015786Y010680D01*
X015826Y010646D01*
X015863Y010609D01*
X015897Y010569D01*
X015928Y010527D01*
X015956Y010483D01*
X015981Y010437D01*
X016002Y010389D01*
X016019Y010339D01*
X016032Y010289D01*
X016042Y010237D01*
X016048Y010185D01*
X016050Y010133D01*
X016048Y010081D01*
X016042Y010029D01*
X016032Y009977D01*
X016019Y009927D01*
X016002Y009877D01*
X015981Y009829D01*
X015956Y009783D01*
X015928Y009739D01*
X015897Y009697D01*
X015863Y009657D01*
X015826Y009620D01*
X015786Y009586D01*
X015744Y009555D01*
X015700Y009527D01*
X015654Y009502D01*
X015606Y009481D01*
X015556Y009464D01*
X015506Y009451D01*
X015454Y009441D01*
X015402Y009435D01*
X015350Y009433D01*
X015298Y009435D01*
X015246Y009441D01*
X015194Y009451D01*
X015144Y009464D01*
X015094Y009481D01*
X015046Y009502D01*
X015000Y009527D01*
X014956Y009555D01*
X014914Y009586D01*
X014874Y009620D01*
X014837Y009657D01*
X014803Y009697D01*
X014772Y009739D01*
X014744Y009783D01*
X014719Y009829D01*
X014698Y009877D01*
X014681Y009927D01*
X014668Y009977D01*
X014658Y010029D01*
X014652Y010081D01*
X014650Y010133D01*
X012900Y012083D02*
X012900Y012183D01*
X013000Y012183D01*
X012900Y012083D02*
X012300Y012083D01*
X012300Y012183D01*
X012200Y012183D01*
X011400Y012533D02*
X011400Y012883D01*
X011400Y013883D01*
X011400Y014233D01*
X011050Y013783D02*
X011050Y013633D01*
X011000Y013583D01*
X011000Y011683D01*
X011050Y011633D01*
X011050Y011483D01*
X011048Y011466D01*
X011044Y011449D01*
X011037Y011433D01*
X011027Y011419D01*
X011014Y011406D01*
X011000Y011396D01*
X010984Y011389D01*
X010967Y011385D01*
X010950Y011383D01*
X010250Y011383D01*
X010233Y011385D01*
X010216Y011389D01*
X010200Y011396D01*
X010186Y011406D01*
X010173Y011419D01*
X010163Y011433D01*
X010156Y011449D01*
X010152Y011466D01*
X010150Y011483D01*
X010150Y011633D01*
X010200Y011683D01*
X010200Y013583D01*
X010150Y013633D01*
X010150Y013783D01*
X010152Y013800D01*
X010156Y013817D01*
X010163Y013833D01*
X010173Y013847D01*
X010186Y013860D01*
X010200Y013870D01*
X010216Y013877D01*
X010233Y013881D01*
X010250Y013883D01*
X010950Y013883D01*
X010967Y013881D01*
X010984Y013877D01*
X011000Y013870D01*
X011014Y013860D01*
X011027Y013847D01*
X011037Y013833D01*
X011044Y013817D01*
X011048Y013800D01*
X011050Y013783D01*
X012200Y014583D02*
X012300Y014583D01*
X012300Y014683D01*
X012900Y014683D01*
X012900Y014583D01*
X013000Y014583D01*
X013800Y014233D02*
X013800Y013833D01*
X013800Y012883D01*
X013800Y012533D01*
X014150Y012533D02*
X014150Y012933D01*
X014150Y013883D01*
X014150Y014233D01*
X015250Y013383D02*
X015252Y013403D01*
X015258Y013421D01*
X015267Y013439D01*
X015279Y013454D01*
X015294Y013466D01*
X015312Y013475D01*
X015330Y013481D01*
X015350Y013483D01*
X015370Y013481D01*
X015388Y013475D01*
X015406Y013466D01*
X015421Y013454D01*
X015433Y013439D01*
X015442Y013421D01*
X015448Y013403D01*
X015450Y013383D01*
X015448Y013363D01*
X015442Y013345D01*
X015433Y013327D01*
X015421Y013312D01*
X015406Y013300D01*
X015388Y013291D01*
X015370Y013285D01*
X015350Y013283D01*
X015330Y013285D01*
X015312Y013291D01*
X015294Y013300D01*
X015279Y013312D01*
X015267Y013327D01*
X015258Y013345D01*
X015252Y013363D01*
X015250Y013383D01*
X014650Y013383D02*
X014652Y013435D01*
X014658Y013487D01*
X014668Y013539D01*
X014681Y013589D01*
X014698Y013639D01*
X014719Y013687D01*
X014744Y013733D01*
X014772Y013777D01*
X014803Y013819D01*
X014837Y013859D01*
X014874Y013896D01*
X014914Y013930D01*
X014956Y013961D01*
X015000Y013989D01*
X015046Y014014D01*
X015094Y014035D01*
X015144Y014052D01*
X015194Y014065D01*
X015246Y014075D01*
X015298Y014081D01*
X015350Y014083D01*
X015402Y014081D01*
X015454Y014075D01*
X015506Y014065D01*
X015556Y014052D01*
X015606Y014035D01*
X015654Y014014D01*
X015700Y013989D01*
X015744Y013961D01*
X015786Y013930D01*
X015826Y013896D01*
X015863Y013859D01*
X015897Y013819D01*
X015928Y013777D01*
X015956Y013733D01*
X015981Y013687D01*
X016002Y013639D01*
X016019Y013589D01*
X016032Y013539D01*
X016042Y013487D01*
X016048Y013435D01*
X016050Y013383D01*
X016048Y013331D01*
X016042Y013279D01*
X016032Y013227D01*
X016019Y013177D01*
X016002Y013127D01*
X015981Y013079D01*
X015956Y013033D01*
X015928Y012989D01*
X015897Y012947D01*
X015863Y012907D01*
X015826Y012870D01*
X015786Y012836D01*
X015744Y012805D01*
X015700Y012777D01*
X015654Y012752D01*
X015606Y012731D01*
X015556Y012714D01*
X015506Y012701D01*
X015454Y012691D01*
X015402Y012685D01*
X015350Y012683D01*
X015298Y012685D01*
X015246Y012691D01*
X015194Y012701D01*
X015144Y012714D01*
X015094Y012731D01*
X015046Y012752D01*
X015000Y012777D01*
X014956Y012805D01*
X014914Y012836D01*
X014874Y012870D01*
X014837Y012907D01*
X014803Y012947D01*
X014772Y012989D01*
X014744Y013033D01*
X014719Y013079D01*
X014698Y013127D01*
X014681Y013177D01*
X014668Y013227D01*
X014658Y013279D01*
X014652Y013331D01*
X014650Y013383D01*
X012500Y013383D02*
X012502Y013403D01*
X012508Y013421D01*
X012517Y013439D01*
X012529Y013454D01*
X012544Y013466D01*
X012562Y013475D01*
X012580Y013481D01*
X012600Y013483D01*
X012620Y013481D01*
X012638Y013475D01*
X012656Y013466D01*
X012671Y013454D01*
X012683Y013439D01*
X012692Y013421D01*
X012698Y013403D01*
X012700Y013383D01*
X012698Y013363D01*
X012692Y013345D01*
X012683Y013327D01*
X012671Y013312D01*
X012656Y013300D01*
X012638Y013291D01*
X012620Y013285D01*
X012600Y013283D01*
X012580Y013285D01*
X012562Y013291D01*
X012544Y013300D01*
X012529Y013312D01*
X012517Y013327D01*
X012508Y013345D01*
X012502Y013363D01*
X012500Y013383D01*
X011900Y013383D02*
X011902Y013435D01*
X011908Y013487D01*
X011918Y013539D01*
X011931Y013589D01*
X011948Y013639D01*
X011969Y013687D01*
X011994Y013733D01*
X012022Y013777D01*
X012053Y013819D01*
X012087Y013859D01*
X012124Y013896D01*
X012164Y013930D01*
X012206Y013961D01*
X012250Y013989D01*
X012296Y014014D01*
X012344Y014035D01*
X012394Y014052D01*
X012444Y014065D01*
X012496Y014075D01*
X012548Y014081D01*
X012600Y014083D01*
X012652Y014081D01*
X012704Y014075D01*
X012756Y014065D01*
X012806Y014052D01*
X012856Y014035D01*
X012904Y014014D01*
X012950Y013989D01*
X012994Y013961D01*
X013036Y013930D01*
X013076Y013896D01*
X013113Y013859D01*
X013147Y013819D01*
X013178Y013777D01*
X013206Y013733D01*
X013231Y013687D01*
X013252Y013639D01*
X013269Y013589D01*
X013282Y013539D01*
X013292Y013487D01*
X013298Y013435D01*
X013300Y013383D01*
X013298Y013331D01*
X013292Y013279D01*
X013282Y013227D01*
X013269Y013177D01*
X013252Y013127D01*
X013231Y013079D01*
X013206Y013033D01*
X013178Y012989D01*
X013147Y012947D01*
X013113Y012907D01*
X013076Y012870D01*
X013036Y012836D01*
X012994Y012805D01*
X012950Y012777D01*
X012904Y012752D01*
X012856Y012731D01*
X012806Y012714D01*
X012756Y012701D01*
X012704Y012691D01*
X012652Y012685D01*
X012600Y012683D01*
X012548Y012685D01*
X012496Y012691D01*
X012444Y012701D01*
X012394Y012714D01*
X012344Y012731D01*
X012296Y012752D01*
X012250Y012777D01*
X012206Y012805D01*
X012164Y012836D01*
X012124Y012870D01*
X012087Y012907D01*
X012053Y012947D01*
X012022Y012989D01*
X011994Y013033D01*
X011969Y013079D01*
X011948Y013127D01*
X011931Y013177D01*
X011918Y013227D01*
X011908Y013279D01*
X011902Y013331D01*
X011900Y013383D01*
X010100Y015033D02*
X010100Y015733D01*
X010098Y015750D01*
X010094Y015767D01*
X010087Y015783D01*
X010077Y015797D01*
X010064Y015810D01*
X010050Y015820D01*
X010034Y015827D01*
X010017Y015831D01*
X010000Y015833D01*
X009850Y015833D01*
X009800Y015783D01*
X007900Y015783D01*
X007850Y015833D01*
X007700Y015833D01*
X007683Y015831D01*
X007666Y015827D01*
X007650Y015820D01*
X007636Y015810D01*
X007623Y015797D01*
X007613Y015783D01*
X007606Y015767D01*
X007602Y015750D01*
X007600Y015733D01*
X007600Y015033D01*
X007602Y015016D01*
X007606Y014999D01*
X007613Y014983D01*
X007623Y014969D01*
X007636Y014956D01*
X007650Y014946D01*
X007666Y014939D01*
X007683Y014935D01*
X007700Y014933D01*
X007850Y014933D01*
X007900Y014983D01*
X009800Y014983D01*
X009850Y014933D01*
X010000Y014933D01*
X010017Y014935D01*
X010034Y014939D01*
X010050Y014946D01*
X010064Y014956D01*
X010077Y014969D01*
X010087Y014983D01*
X010094Y014999D01*
X010098Y015016D01*
X010100Y015033D01*
X010000Y015933D02*
X009850Y015933D01*
X009800Y015983D01*
X007900Y015983D01*
X007850Y015933D01*
X007700Y015933D01*
X007683Y015935D01*
X007666Y015939D01*
X007650Y015946D01*
X007636Y015956D01*
X007623Y015969D01*
X007613Y015983D01*
X007606Y015999D01*
X007602Y016016D01*
X007600Y016033D01*
X007600Y016733D01*
X007602Y016750D01*
X007606Y016767D01*
X007613Y016783D01*
X007623Y016797D01*
X007636Y016810D01*
X007650Y016820D01*
X007666Y016827D01*
X007683Y016831D01*
X007700Y016833D01*
X007850Y016833D01*
X007900Y016783D01*
X009800Y016783D01*
X009850Y016833D01*
X010000Y016833D01*
X010017Y016831D01*
X010034Y016827D01*
X010050Y016820D01*
X010064Y016810D01*
X010077Y016797D01*
X010087Y016783D01*
X010094Y016767D01*
X010098Y016750D01*
X010100Y016733D01*
X010100Y016033D01*
X010098Y016016D01*
X010094Y015999D01*
X010087Y015983D01*
X010077Y015969D01*
X010064Y015956D01*
X010050Y015946D01*
X010034Y015939D01*
X010017Y015935D01*
X010000Y015933D01*
X010000Y016933D02*
X009850Y016933D01*
X009800Y016983D01*
X007900Y016983D01*
X007850Y016933D01*
X007700Y016933D01*
X007683Y016935D01*
X007666Y016939D01*
X007650Y016946D01*
X007636Y016956D01*
X007623Y016969D01*
X007613Y016983D01*
X007606Y016999D01*
X007602Y017016D01*
X007600Y017033D01*
X007600Y017733D01*
X007602Y017750D01*
X007606Y017767D01*
X007613Y017783D01*
X007623Y017797D01*
X007636Y017810D01*
X007650Y017820D01*
X007666Y017827D01*
X007683Y017831D01*
X007700Y017833D01*
X007850Y017833D01*
X007900Y017783D01*
X009800Y017783D01*
X009850Y017833D01*
X010000Y017833D01*
X010017Y017831D01*
X010034Y017827D01*
X010050Y017820D01*
X010064Y017810D01*
X010077Y017797D01*
X010087Y017783D01*
X010094Y017767D01*
X010098Y017750D01*
X010100Y017733D01*
X010100Y017033D01*
X010098Y017016D01*
X010094Y016999D01*
X010087Y016983D01*
X010077Y016969D01*
X010064Y016956D01*
X010050Y016946D01*
X010034Y016939D01*
X010017Y016935D01*
X010000Y016933D01*
X014050Y016933D02*
X014050Y016333D01*
X014150Y016333D01*
X014150Y016233D01*
X014150Y016933D02*
X014050Y016933D01*
X014150Y016933D02*
X014150Y017033D01*
X014500Y017833D02*
X014900Y017833D01*
X015850Y017833D01*
X016200Y017833D01*
X015250Y016633D02*
X015252Y016653D01*
X015258Y016671D01*
X015267Y016689D01*
X015279Y016704D01*
X015294Y016716D01*
X015312Y016725D01*
X015330Y016731D01*
X015350Y016733D01*
X015370Y016731D01*
X015388Y016725D01*
X015406Y016716D01*
X015421Y016704D01*
X015433Y016689D01*
X015442Y016671D01*
X015448Y016653D01*
X015450Y016633D01*
X015448Y016613D01*
X015442Y016595D01*
X015433Y016577D01*
X015421Y016562D01*
X015406Y016550D01*
X015388Y016541D01*
X015370Y016535D01*
X015350Y016533D01*
X015330Y016535D01*
X015312Y016541D01*
X015294Y016550D01*
X015279Y016562D01*
X015267Y016577D01*
X015258Y016595D01*
X015252Y016613D01*
X015250Y016633D01*
X014650Y016633D02*
X014652Y016685D01*
X014658Y016737D01*
X014668Y016789D01*
X014681Y016839D01*
X014698Y016889D01*
X014719Y016937D01*
X014744Y016983D01*
X014772Y017027D01*
X014803Y017069D01*
X014837Y017109D01*
X014874Y017146D01*
X014914Y017180D01*
X014956Y017211D01*
X015000Y017239D01*
X015046Y017264D01*
X015094Y017285D01*
X015144Y017302D01*
X015194Y017315D01*
X015246Y017325D01*
X015298Y017331D01*
X015350Y017333D01*
X015402Y017331D01*
X015454Y017325D01*
X015506Y017315D01*
X015556Y017302D01*
X015606Y017285D01*
X015654Y017264D01*
X015700Y017239D01*
X015744Y017211D01*
X015786Y017180D01*
X015826Y017146D01*
X015863Y017109D01*
X015897Y017069D01*
X015928Y017027D01*
X015956Y016983D01*
X015981Y016937D01*
X016002Y016889D01*
X016019Y016839D01*
X016032Y016789D01*
X016042Y016737D01*
X016048Y016685D01*
X016050Y016633D01*
X016048Y016581D01*
X016042Y016529D01*
X016032Y016477D01*
X016019Y016427D01*
X016002Y016377D01*
X015981Y016329D01*
X015956Y016283D01*
X015928Y016239D01*
X015897Y016197D01*
X015863Y016157D01*
X015826Y016120D01*
X015786Y016086D01*
X015744Y016055D01*
X015700Y016027D01*
X015654Y016002D01*
X015606Y015981D01*
X015556Y015964D01*
X015506Y015951D01*
X015454Y015941D01*
X015402Y015935D01*
X015350Y015933D01*
X015298Y015935D01*
X015246Y015941D01*
X015194Y015951D01*
X015144Y015964D01*
X015094Y015981D01*
X015046Y016002D01*
X015000Y016027D01*
X014956Y016055D01*
X014914Y016086D01*
X014874Y016120D01*
X014837Y016157D01*
X014803Y016197D01*
X014772Y016239D01*
X014744Y016283D01*
X014719Y016329D01*
X014698Y016377D01*
X014681Y016427D01*
X014668Y016477D01*
X014658Y016529D01*
X014652Y016581D01*
X014650Y016633D01*
X004966Y017612D02*
X004968Y017653D01*
X004974Y017694D01*
X004984Y017734D01*
X004997Y017773D01*
X005014Y017810D01*
X005035Y017846D01*
X005059Y017880D01*
X005086Y017911D01*
X005115Y017939D01*
X005148Y017965D01*
X005182Y017987D01*
X005219Y018006D01*
X005257Y018021D01*
X005297Y018033D01*
X005337Y018041D01*
X005378Y018045D01*
X005420Y018045D01*
X005461Y018041D01*
X005501Y018033D01*
X005541Y018021D01*
X005579Y018006D01*
X005615Y017987D01*
X005650Y017965D01*
X005683Y017939D01*
X005712Y017911D01*
X005739Y017880D01*
X005763Y017846D01*
X005784Y017810D01*
X005801Y017773D01*
X005814Y017734D01*
X005824Y017694D01*
X005830Y017653D01*
X005832Y017612D01*
X005830Y017571D01*
X005824Y017530D01*
X005814Y017490D01*
X005801Y017451D01*
X005784Y017414D01*
X005763Y017378D01*
X005739Y017344D01*
X005712Y017313D01*
X005683Y017285D01*
X005650Y017259D01*
X005616Y017237D01*
X005579Y017218D01*
X005541Y017203D01*
X005501Y017191D01*
X005461Y017183D01*
X005420Y017179D01*
X005378Y017179D01*
X005337Y017183D01*
X005297Y017191D01*
X005257Y017203D01*
X005219Y017218D01*
X005183Y017237D01*
X005148Y017259D01*
X005115Y017285D01*
X005086Y017313D01*
X005059Y017344D01*
X005035Y017378D01*
X005014Y017414D01*
X004997Y017451D01*
X004984Y017490D01*
X004974Y017530D01*
X004968Y017571D01*
X004966Y017612D01*
X004950Y006883D02*
X004250Y006883D01*
X004233Y006881D01*
X004216Y006877D01*
X004200Y006870D01*
X004186Y006860D01*
X004173Y006847D01*
X004163Y006833D01*
X004156Y006817D01*
X004152Y006800D01*
X004150Y006783D01*
X004150Y006633D01*
X004200Y006583D01*
X004200Y004683D01*
X004150Y004633D01*
X004150Y004483D01*
X004152Y004466D01*
X004156Y004449D01*
X004163Y004433D01*
X004173Y004419D01*
X004186Y004406D01*
X004200Y004396D01*
X004216Y004389D01*
X004233Y004385D01*
X004250Y004383D01*
X004950Y004383D01*
X004967Y004385D01*
X004984Y004389D01*
X005000Y004396D01*
X005014Y004406D01*
X005027Y004419D01*
X005037Y004433D01*
X005044Y004449D01*
X005048Y004466D01*
X005050Y004483D01*
X005050Y004633D01*
X005000Y004683D01*
X005000Y006583D01*
X005050Y006633D01*
X005050Y006783D01*
X005150Y006783D02*
X005150Y006633D01*
X005200Y006583D01*
X005200Y004683D01*
X005150Y004633D01*
X005150Y004483D01*
X005152Y004466D01*
X005156Y004449D01*
X005163Y004433D01*
X005173Y004419D01*
X005186Y004406D01*
X005200Y004396D01*
X005216Y004389D01*
X005233Y004385D01*
X005250Y004383D01*
X005950Y004383D01*
X005967Y004385D01*
X005984Y004389D01*
X006000Y004396D01*
X006014Y004406D01*
X006027Y004419D01*
X006037Y004433D01*
X006044Y004449D01*
X006048Y004466D01*
X006050Y004483D01*
X006050Y004633D01*
X006000Y004683D01*
X006000Y006583D01*
X006050Y006633D01*
X006050Y006783D01*
X006048Y006800D01*
X006044Y006817D01*
X006037Y006833D01*
X006027Y006847D01*
X006014Y006860D01*
X006000Y006870D01*
X005984Y006877D01*
X005967Y006881D01*
X005950Y006883D01*
X005250Y006883D01*
X005233Y006881D01*
X005216Y006877D01*
X005200Y006870D01*
X005186Y006860D01*
X005173Y006847D01*
X005163Y006833D01*
X005156Y006817D01*
X005152Y006800D01*
X005150Y006783D01*
X005050Y006783D02*
X005048Y006800D01*
X005044Y006817D01*
X005037Y006833D01*
X005027Y006847D01*
X005014Y006860D01*
X005000Y006870D01*
X004984Y006877D01*
X004967Y006881D01*
X004950Y006883D01*
X006150Y006783D02*
X006150Y006633D01*
X006200Y006583D01*
X006200Y004683D01*
X006150Y004633D01*
X006150Y004483D01*
X006152Y004466D01*
X006156Y004449D01*
X006163Y004433D01*
X006173Y004419D01*
X006186Y004406D01*
X006200Y004396D01*
X006216Y004389D01*
X006233Y004385D01*
X006250Y004383D01*
X006950Y004383D01*
X006967Y004385D01*
X006984Y004389D01*
X007000Y004396D01*
X007014Y004406D01*
X007027Y004419D01*
X007037Y004433D01*
X007044Y004449D01*
X007048Y004466D01*
X007050Y004483D01*
X007050Y004633D01*
X007000Y004683D01*
X007000Y006583D01*
X007050Y006633D01*
X007050Y006783D01*
X007150Y006783D02*
X007150Y006633D01*
X007200Y006583D01*
X007200Y004683D01*
X007150Y004633D01*
X007150Y004483D01*
X007152Y004466D01*
X007156Y004449D01*
X007163Y004433D01*
X007173Y004419D01*
X007186Y004406D01*
X007200Y004396D01*
X007216Y004389D01*
X007233Y004385D01*
X007250Y004383D01*
X007950Y004383D01*
X007967Y004385D01*
X007984Y004389D01*
X008000Y004396D01*
X008014Y004406D01*
X008027Y004419D01*
X008037Y004433D01*
X008044Y004449D01*
X008048Y004466D01*
X008050Y004483D01*
X008050Y004633D01*
X008000Y004683D01*
X008000Y006583D01*
X008050Y006633D01*
X008050Y006783D01*
X008048Y006800D01*
X008044Y006817D01*
X008037Y006833D01*
X008027Y006847D01*
X008014Y006860D01*
X008000Y006870D01*
X007984Y006877D01*
X007967Y006881D01*
X007950Y006883D01*
X007250Y006883D01*
X007233Y006881D01*
X007216Y006877D01*
X007200Y006870D01*
X007186Y006860D01*
X007173Y006847D01*
X007163Y006833D01*
X007156Y006817D01*
X007152Y006800D01*
X007150Y006783D01*
X007050Y006783D02*
X007048Y006800D01*
X007044Y006817D01*
X007037Y006833D01*
X007027Y006847D01*
X007014Y006860D01*
X007000Y006870D01*
X006984Y006877D01*
X006967Y006881D01*
X006950Y006883D01*
X006250Y006883D01*
X006233Y006881D01*
X006216Y006877D01*
X006200Y006870D01*
X006186Y006860D01*
X006173Y006847D01*
X006163Y006833D01*
X006156Y006817D01*
X006152Y006800D01*
X006150Y006783D01*
X021091Y004070D02*
X021198Y003963D01*
X021304Y003963D01*
X021411Y004070D01*
X021411Y004604D01*
X021304Y004604D02*
X021518Y004604D01*
X021735Y004390D02*
X021949Y004604D01*
X021949Y003963D01*
X022162Y003963D02*
X021735Y003963D01*
D15*
X012600Y008213D03*
X012600Y011053D03*
X010600Y011213D03*
X010600Y014053D03*
X007600Y007053D03*
X006600Y007053D03*
X005600Y007053D03*
X004600Y007053D03*
X004600Y004213D03*
X005600Y004213D03*
X006600Y004213D03*
X007600Y004213D03*
D16*
X010350Y003383D02*
X010350Y001633D01*
X012350Y001633D01*
X012350Y000883D01*
X010350Y000883D01*
X010350Y001633D01*
X010350Y003383D02*
X012350Y003383D01*
X012350Y001633D01*
X017350Y005133D02*
X017350Y009133D01*
X019100Y009133D01*
X019100Y005133D01*
X017350Y005133D01*
X019100Y005133D02*
X019850Y005133D01*
X019850Y009133D01*
X019100Y009133D01*
X018100Y018383D02*
X014100Y018383D01*
X014100Y020133D01*
X018100Y020133D01*
X018100Y018383D01*
X018100Y020133D02*
X018100Y020883D01*
X014100Y020883D01*
X014100Y020133D01*
X013100Y020133D02*
X010100Y020133D01*
X010100Y020883D01*
X013100Y020883D01*
X013100Y020133D01*
X013100Y018383D01*
X010100Y018383D01*
X010100Y020133D01*
X009100Y020133D02*
X006100Y020133D01*
X006100Y020883D01*
X009100Y020883D01*
X009100Y020133D01*
X009100Y018383D01*
X006100Y018383D01*
X006100Y020133D01*
X005100Y020133D02*
X002100Y020133D01*
X002100Y020883D01*
X005100Y020883D01*
X005100Y020133D01*
X005100Y018383D01*
X002100Y018383D01*
X002100Y020133D01*
X002210Y018183D02*
X005990Y018183D01*
X005990Y016391D01*
X005360Y016391D01*
X005360Y016490D01*
X002840Y016490D01*
X002840Y016391D01*
X002210Y016391D01*
X002210Y018183D01*
D17*
X005399Y017612D03*
D18*
X011400Y013883D02*
X011500Y013883D01*
X011500Y012883D01*
X011400Y012883D01*
X013700Y012883D02*
X013800Y012883D01*
X013700Y012883D02*
X013700Y013833D01*
X013800Y013833D01*
X014150Y013883D02*
X014250Y013883D01*
X014250Y012933D01*
X014150Y012933D01*
X014900Y011333D02*
X014900Y011233D01*
X015850Y011233D01*
X015850Y011333D01*
X016450Y012883D02*
X016550Y012883D01*
X016450Y012883D02*
X016450Y013883D01*
X016550Y013883D01*
X016900Y013883D02*
X017000Y013883D01*
X017000Y012883D01*
X016900Y012883D01*
X019200Y012883D02*
X019300Y012883D01*
X019200Y012883D02*
X019200Y013833D01*
X019300Y013833D01*
X015850Y015433D02*
X015850Y015533D01*
X014850Y015533D01*
X014850Y015433D01*
X014900Y017733D02*
X014900Y017833D01*
X014900Y017733D02*
X015850Y017733D01*
X015850Y017833D01*
X015850Y009033D02*
X014850Y009033D01*
X014850Y008933D01*
X015850Y008933D02*
X015850Y009033D01*
D19*
X010270Y015383D03*
X010270Y016383D03*
X010270Y017383D03*
X007430Y017383D03*
X007430Y016383D03*
X007430Y015383D03*
D20*
X011955Y008641D02*
X011955Y008541D01*
X011955Y008494D02*
X011955Y008394D01*
X012105Y008394D01*
X012105Y008494D01*
X012030Y008444D02*
X012030Y008394D01*
X012105Y008346D02*
X011955Y008346D01*
X011955Y008246D02*
X012105Y008346D01*
X012105Y008246D02*
X011955Y008246D01*
X011980Y008199D02*
X012030Y008199D01*
X012055Y008174D01*
X012055Y008099D01*
X012105Y008099D02*
X011955Y008099D01*
X011955Y008174D01*
X011980Y008199D01*
X012055Y008149D02*
X012105Y008199D01*
X012105Y008052D02*
X012105Y007952D01*
X011955Y007952D01*
X011955Y008052D01*
X012030Y008002D02*
X012030Y007952D01*
X012030Y007904D02*
X012030Y007804D01*
X012105Y007804D02*
X011955Y007804D01*
X011955Y007757D02*
X011955Y007657D01*
X011955Y007610D02*
X011955Y007510D01*
X012105Y007510D01*
X012105Y007610D01*
X012030Y007560D02*
X012030Y007510D01*
X012105Y007707D02*
X011955Y007707D01*
X011955Y007904D02*
X012105Y007904D01*
X012105Y008591D02*
X011955Y008591D01*
D21*
X011350Y007383D03*
M02*
