G75*
G70*
%OFA0B0*%
%FSLAX24Y24*%
%IPPOS*%
%LPD*%
%AMOC8*
5,1,8,0,0,1.08239X$1,22.5*
%
%ADD10C,0.0000*%
%ADD11C,0.0040*%
D10*
X000100Y001133D02*
X000100Y020818D01*
X019592Y020818D01*
X019592Y001133D01*
X000100Y001133D01*
X000653Y002027D02*
X000655Y002075D01*
X000661Y002123D01*
X000671Y002170D01*
X000684Y002216D01*
X000702Y002261D01*
X000722Y002305D01*
X000747Y002347D01*
X000775Y002386D01*
X000805Y002423D01*
X000839Y002457D01*
X000876Y002489D01*
X000914Y002518D01*
X000955Y002543D01*
X000998Y002565D01*
X001043Y002583D01*
X001089Y002597D01*
X001136Y002608D01*
X001184Y002615D01*
X001232Y002618D01*
X001280Y002617D01*
X001328Y002612D01*
X001376Y002603D01*
X001422Y002591D01*
X001467Y002574D01*
X001511Y002554D01*
X001553Y002531D01*
X001593Y002504D01*
X001631Y002474D01*
X001666Y002441D01*
X001698Y002405D01*
X001728Y002367D01*
X001754Y002326D01*
X001776Y002283D01*
X001796Y002239D01*
X001811Y002194D01*
X001823Y002147D01*
X001831Y002099D01*
X001835Y002051D01*
X001835Y002003D01*
X001831Y001955D01*
X001823Y001907D01*
X001811Y001860D01*
X001796Y001815D01*
X001776Y001771D01*
X001754Y001728D01*
X001728Y001687D01*
X001698Y001649D01*
X001666Y001613D01*
X001631Y001580D01*
X001593Y001550D01*
X001553Y001523D01*
X001511Y001500D01*
X001467Y001480D01*
X001422Y001463D01*
X001376Y001451D01*
X001328Y001442D01*
X001280Y001437D01*
X001232Y001436D01*
X001184Y001439D01*
X001136Y001446D01*
X001089Y001457D01*
X001043Y001471D01*
X000998Y001489D01*
X000955Y001511D01*
X000914Y001536D01*
X000876Y001565D01*
X000839Y001597D01*
X000805Y001631D01*
X000775Y001668D01*
X000747Y001707D01*
X000722Y001749D01*
X000702Y001793D01*
X000684Y001838D01*
X000671Y001884D01*
X000661Y001931D01*
X000655Y001979D01*
X000653Y002027D01*
X018049Y010633D02*
X018051Y010680D01*
X018057Y010726D01*
X018067Y010772D01*
X018080Y010817D01*
X018098Y010860D01*
X018119Y010902D01*
X018143Y010942D01*
X018171Y010979D01*
X018202Y011014D01*
X018236Y011047D01*
X018272Y011076D01*
X018311Y011102D01*
X018352Y011125D01*
X018395Y011144D01*
X018439Y011160D01*
X018484Y011172D01*
X018530Y011180D01*
X018577Y011184D01*
X018623Y011184D01*
X018670Y011180D01*
X018716Y011172D01*
X018761Y011160D01*
X018805Y011144D01*
X018848Y011125D01*
X018889Y011102D01*
X018928Y011076D01*
X018964Y011047D01*
X018998Y011014D01*
X019029Y010979D01*
X019057Y010942D01*
X019081Y010902D01*
X019102Y010860D01*
X019120Y010817D01*
X019133Y010772D01*
X019143Y010726D01*
X019149Y010680D01*
X019151Y010633D01*
X019149Y010586D01*
X019143Y010540D01*
X019133Y010494D01*
X019120Y010449D01*
X019102Y010406D01*
X019081Y010364D01*
X019057Y010324D01*
X019029Y010287D01*
X018998Y010252D01*
X018964Y010219D01*
X018928Y010190D01*
X018889Y010164D01*
X018848Y010141D01*
X018805Y010122D01*
X018761Y010106D01*
X018716Y010094D01*
X018670Y010086D01*
X018623Y010082D01*
X018577Y010082D01*
X018530Y010086D01*
X018484Y010094D01*
X018439Y010106D01*
X018395Y010122D01*
X018352Y010141D01*
X018311Y010164D01*
X018272Y010190D01*
X018236Y010219D01*
X018202Y010252D01*
X018171Y010287D01*
X018143Y010324D01*
X018119Y010364D01*
X018098Y010406D01*
X018080Y010449D01*
X018067Y010494D01*
X018057Y010540D01*
X018051Y010586D01*
X018049Y010633D01*
X018153Y017527D02*
X018155Y017575D01*
X018161Y017623D01*
X018171Y017670D01*
X018184Y017716D01*
X018202Y017761D01*
X018222Y017805D01*
X018247Y017847D01*
X018275Y017886D01*
X018305Y017923D01*
X018339Y017957D01*
X018376Y017989D01*
X018414Y018018D01*
X018455Y018043D01*
X018498Y018065D01*
X018543Y018083D01*
X018589Y018097D01*
X018636Y018108D01*
X018684Y018115D01*
X018732Y018118D01*
X018780Y018117D01*
X018828Y018112D01*
X018876Y018103D01*
X018922Y018091D01*
X018967Y018074D01*
X019011Y018054D01*
X019053Y018031D01*
X019093Y018004D01*
X019131Y017974D01*
X019166Y017941D01*
X019198Y017905D01*
X019228Y017867D01*
X019254Y017826D01*
X019276Y017783D01*
X019296Y017739D01*
X019311Y017694D01*
X019323Y017647D01*
X019331Y017599D01*
X019335Y017551D01*
X019335Y017503D01*
X019331Y017455D01*
X019323Y017407D01*
X019311Y017360D01*
X019296Y017315D01*
X019276Y017271D01*
X019254Y017228D01*
X019228Y017187D01*
X019198Y017149D01*
X019166Y017113D01*
X019131Y017080D01*
X019093Y017050D01*
X019053Y017023D01*
X019011Y017000D01*
X018967Y016980D01*
X018922Y016963D01*
X018876Y016951D01*
X018828Y016942D01*
X018780Y016937D01*
X018732Y016936D01*
X018684Y016939D01*
X018636Y016946D01*
X018589Y016957D01*
X018543Y016971D01*
X018498Y016989D01*
X018455Y017011D01*
X018414Y017036D01*
X018376Y017065D01*
X018339Y017097D01*
X018305Y017131D01*
X018275Y017168D01*
X018247Y017207D01*
X018222Y017249D01*
X018202Y017293D01*
X018184Y017338D01*
X018171Y017384D01*
X018161Y017431D01*
X018155Y017479D01*
X018153Y017527D01*
X000443Y019883D02*
X000445Y019930D01*
X000451Y019976D01*
X000461Y020022D01*
X000474Y020067D01*
X000492Y020110D01*
X000513Y020152D01*
X000537Y020192D01*
X000565Y020229D01*
X000596Y020264D01*
X000630Y020297D01*
X000666Y020326D01*
X000705Y020352D01*
X000746Y020375D01*
X000789Y020394D01*
X000833Y020410D01*
X000878Y020422D01*
X000924Y020430D01*
X000971Y020434D01*
X001017Y020434D01*
X001064Y020430D01*
X001110Y020422D01*
X001155Y020410D01*
X001199Y020394D01*
X001242Y020375D01*
X001283Y020352D01*
X001322Y020326D01*
X001358Y020297D01*
X001392Y020264D01*
X001423Y020229D01*
X001451Y020192D01*
X001475Y020152D01*
X001496Y020110D01*
X001514Y020067D01*
X001527Y020022D01*
X001537Y019976D01*
X001543Y019930D01*
X001545Y019883D01*
X001543Y019836D01*
X001537Y019790D01*
X001527Y019744D01*
X001514Y019699D01*
X001496Y019656D01*
X001475Y019614D01*
X001451Y019574D01*
X001423Y019537D01*
X001392Y019502D01*
X001358Y019469D01*
X001322Y019440D01*
X001283Y019414D01*
X001242Y019391D01*
X001199Y019372D01*
X001155Y019356D01*
X001110Y019344D01*
X001064Y019336D01*
X001017Y019332D01*
X000971Y019332D01*
X000924Y019336D01*
X000878Y019344D01*
X000833Y019356D01*
X000789Y019372D01*
X000746Y019391D01*
X000705Y019414D01*
X000666Y019440D01*
X000630Y019469D01*
X000596Y019502D01*
X000565Y019537D01*
X000537Y019574D01*
X000513Y019614D01*
X000492Y019656D01*
X000474Y019699D01*
X000461Y019744D01*
X000451Y019790D01*
X000445Y019836D01*
X000443Y019883D01*
D11*
X004870Y013173D02*
X005330Y013173D01*
X005100Y012943D01*
X005100Y013250D01*
X004947Y012789D02*
X004870Y012713D01*
X004870Y012559D01*
X004947Y012483D01*
X005254Y012789D01*
X004947Y012789D01*
X004947Y012483D02*
X005254Y012483D01*
X005330Y012559D01*
X005330Y012713D01*
X005254Y012789D01*
X005330Y012329D02*
X005254Y012176D01*
X005100Y012022D01*
X005100Y012252D01*
X005023Y012329D01*
X004947Y012329D01*
X004870Y012252D01*
X004870Y012099D01*
X004947Y012022D01*
X005100Y012022D01*
X005177Y011869D02*
X005254Y011869D01*
X005330Y011792D01*
X005330Y011638D01*
X005254Y011562D01*
X005254Y011408D02*
X005177Y011408D01*
X004870Y011101D01*
X004870Y011408D01*
X004870Y011562D02*
X005177Y011869D01*
X004870Y011869D02*
X004870Y011562D01*
X005254Y011408D02*
X005330Y011332D01*
X005330Y011178D01*
X005254Y011101D01*
X005254Y010948D02*
X004947Y010641D01*
X004870Y010718D01*
X004870Y010871D01*
X004947Y010948D01*
X005254Y010948D01*
X005330Y010871D01*
X005330Y010718D01*
X005254Y010641D01*
X004947Y010641D01*
X004947Y010488D02*
X004870Y010411D01*
X004870Y010257D01*
X004947Y010181D01*
X005254Y010488D01*
X004947Y010488D01*
X005254Y010488D02*
X005330Y010411D01*
X005330Y010257D01*
X005254Y010181D01*
X004947Y010181D01*
X004947Y010027D02*
X004870Y009950D01*
X004870Y009797D01*
X004947Y009720D01*
X005254Y010027D01*
X004947Y010027D01*
X005254Y010027D02*
X005330Y009950D01*
X005330Y009797D01*
X005254Y009720D01*
X004947Y009720D01*
X004870Y009567D02*
X004870Y009260D01*
X004870Y009413D02*
X005330Y009413D01*
X005177Y009260D01*
X005177Y009106D02*
X005177Y009030D01*
X005177Y008799D01*
X005023Y008799D02*
X005023Y009106D01*
X004870Y009030D02*
X005330Y009030D01*
X005330Y008876D02*
X004870Y008876D01*
X005620Y008876D02*
X005620Y009030D01*
X005697Y009106D01*
X006004Y009106D01*
X006080Y009030D01*
X006080Y008876D01*
X006004Y008799D01*
X005697Y008799D01*
X005620Y008876D01*
X005620Y009260D02*
X006080Y009260D01*
X006080Y009490D01*
X006004Y009567D01*
X005850Y009567D01*
X005773Y009490D01*
X005773Y009260D01*
X005773Y009413D02*
X005620Y009567D01*
X005620Y009720D02*
X005620Y009950D01*
X005697Y010027D01*
X006004Y010027D01*
X006080Y009950D01*
X006080Y009720D01*
X005620Y009720D01*
X005620Y010181D02*
X005620Y010488D01*
X005620Y010641D02*
X006080Y010641D01*
X006080Y010871D01*
X006004Y010948D01*
X005850Y010948D01*
X005773Y010871D01*
X005773Y010641D01*
X005773Y010794D02*
X005620Y010948D01*
X006080Y010488D02*
X006080Y010181D01*
X005620Y010181D01*
X005850Y010181D02*
X005850Y010334D01*
X014870Y010312D02*
X014870Y010235D01*
X014947Y010235D01*
X014947Y010312D01*
X014870Y010312D01*
X014870Y010465D02*
X015177Y010772D01*
X015254Y010772D01*
X015330Y010695D01*
X015330Y010542D01*
X015254Y010465D01*
X014870Y010465D02*
X014870Y010772D01*
X014870Y010082D02*
X014870Y009775D01*
X014870Y009928D02*
X015330Y009928D01*
X015177Y009775D01*
X015023Y009621D02*
X015330Y009621D01*
X015023Y009621D02*
X014870Y009468D01*
X015023Y009314D01*
X015330Y009314D01*
X015177Y008700D02*
X015177Y008624D01*
X015023Y008470D01*
X014870Y008470D02*
X015177Y008470D01*
X015100Y008317D02*
X015023Y008317D01*
X015023Y008010D01*
X014947Y008010D02*
X015100Y008010D01*
X015177Y008086D01*
X015177Y008240D01*
X015100Y008317D01*
X014870Y008240D02*
X014870Y008086D01*
X014947Y008010D01*
X014870Y007856D02*
X014870Y007703D01*
X014870Y007780D02*
X015330Y007780D01*
X015330Y007703D01*
X015330Y007473D02*
X014870Y007473D01*
X014870Y007549D02*
X014870Y007396D01*
X014947Y007242D02*
X015100Y007242D01*
X015177Y007166D01*
X015177Y007012D01*
X015100Y006936D01*
X014947Y006936D01*
X014870Y007012D01*
X014870Y007166D01*
X014947Y007242D01*
X015330Y007396D02*
X015330Y007473D01*
X015177Y006782D02*
X015177Y006705D01*
X015023Y006552D01*
X014870Y006552D02*
X015177Y006552D01*
X015177Y006398D02*
X015177Y006245D01*
X015254Y006322D02*
X014947Y006322D01*
X014870Y006398D01*
X014870Y006091D02*
X015100Y006091D01*
X015177Y006015D01*
X015177Y005785D01*
X014870Y005785D01*
X014947Y005631D02*
X015100Y005631D01*
X015177Y005554D01*
X015177Y005401D01*
X015100Y005324D01*
X014947Y005324D01*
X014870Y005401D01*
X014870Y005554D01*
X014947Y005631D01*
X014870Y005171D02*
X014870Y004940D01*
X014947Y004864D01*
X015100Y004864D01*
X015177Y004940D01*
X015177Y005171D01*
X015620Y005171D02*
X015620Y005017D01*
X015697Y004940D01*
X015850Y004940D01*
X015927Y005017D01*
X015927Y005171D01*
X015850Y005247D01*
X015773Y005247D01*
X015773Y004940D01*
X016080Y004787D02*
X015620Y004480D01*
X015620Y004327D02*
X015697Y004250D01*
X016004Y004250D01*
X015927Y004173D02*
X015927Y004327D01*
X016080Y003943D02*
X015620Y003943D01*
X015620Y003866D02*
X015620Y004020D01*
X015620Y003713D02*
X015620Y003636D01*
X015697Y003636D01*
X015697Y003713D01*
X015620Y003713D01*
X015773Y003483D02*
X015773Y003176D01*
X015697Y003176D02*
X015850Y003176D01*
X015927Y003252D01*
X015927Y003406D01*
X015850Y003483D01*
X015773Y003483D01*
X015620Y003406D02*
X015620Y003252D01*
X015697Y003176D01*
X015927Y003022D02*
X015927Y002945D01*
X015773Y002792D01*
X015620Y002792D02*
X015927Y002792D01*
X015927Y002562D02*
X015620Y002562D01*
X015620Y002485D02*
X015620Y002639D01*
X015927Y002562D02*
X015927Y002485D01*
X016080Y002562D02*
X016157Y002562D01*
X016370Y002562D02*
X016370Y002715D01*
X016370Y002562D02*
X016447Y002485D01*
X016600Y002485D01*
X016677Y002562D01*
X016677Y002715D01*
X016600Y002792D01*
X016523Y002792D01*
X016523Y002485D01*
X016370Y002332D02*
X016370Y002178D01*
X016370Y002255D02*
X016830Y002255D01*
X016830Y002178D01*
X016600Y002025D02*
X016677Y001948D01*
X016677Y001794D01*
X016600Y001718D01*
X016447Y001718D01*
X016370Y001794D01*
X016370Y001948D01*
X016447Y002025D01*
X016600Y002025D01*
X016677Y001564D02*
X016523Y001334D01*
X016370Y001564D01*
X016370Y001334D02*
X016830Y001334D01*
X017120Y001334D02*
X017580Y001334D01*
X017580Y001257D01*
X017427Y001104D02*
X017120Y001104D01*
X017120Y000874D01*
X017197Y000797D01*
X017427Y000797D01*
X017350Y000643D02*
X017120Y000643D01*
X017120Y000413D01*
X017197Y000337D01*
X017273Y000413D01*
X017273Y000643D01*
X017350Y000643D02*
X017427Y000567D01*
X017427Y000413D01*
X017504Y000183D02*
X017580Y000106D01*
X017580Y-000047D01*
X017504Y-000124D01*
X017427Y-000124D01*
X017350Y-000047D01*
X017350Y000106D01*
X017273Y000183D01*
X017197Y000183D01*
X017120Y000106D01*
X017120Y-000047D01*
X017197Y-000124D01*
X017197Y-000277D02*
X017120Y-000277D01*
X017120Y-000354D01*
X017197Y-000354D01*
X017197Y-000277D01*
X017197Y-000507D02*
X017427Y-000507D01*
X017197Y-000507D02*
X017120Y-000584D01*
X017197Y-000661D01*
X017120Y-000738D01*
X017197Y-000814D01*
X017427Y-000814D01*
X017427Y-000968D02*
X017197Y-000968D01*
X017120Y-001045D01*
X017197Y-001121D01*
X017120Y-001198D01*
X017197Y-001275D01*
X017427Y-001275D01*
X017427Y-001428D02*
X017197Y-001428D01*
X017120Y-001505D01*
X017197Y-001582D01*
X017120Y-001658D01*
X017197Y-001735D01*
X017427Y-001735D01*
X016830Y-001658D02*
X016754Y-001735D01*
X016677Y-001735D01*
X016600Y-001658D01*
X016600Y-001505D01*
X016523Y-001428D01*
X016447Y-001428D01*
X016370Y-001505D01*
X016370Y-001658D01*
X016447Y-001735D01*
X016754Y-001428D02*
X016830Y-001505D01*
X016830Y-001658D01*
X016677Y-001198D02*
X016677Y-001045D01*
X016600Y-000968D01*
X016370Y-000968D01*
X016370Y-001198D01*
X016447Y-001275D01*
X016523Y-001198D01*
X016523Y-000968D01*
X016447Y-000814D02*
X016370Y-000738D01*
X016370Y-000507D01*
X016677Y-000507D01*
X016830Y-000354D02*
X016830Y-000277D01*
X016370Y-000277D01*
X016370Y-000201D02*
X016370Y-000354D01*
X016447Y-000047D02*
X016600Y-000047D01*
X016677Y000030D01*
X016677Y000183D01*
X016600Y000260D01*
X016523Y000260D01*
X016523Y-000047D01*
X016447Y-000047D02*
X016370Y000030D01*
X016370Y000183D01*
X016370Y000413D02*
X016370Y000643D01*
X016447Y000720D01*
X016523Y000643D01*
X016523Y000490D01*
X016600Y000413D01*
X016677Y000490D01*
X016677Y000720D01*
X017120Y001257D02*
X017120Y001411D01*
X017197Y001564D02*
X017350Y001564D01*
X017427Y001641D01*
X017427Y001794D01*
X017350Y001871D01*
X017273Y001871D01*
X017273Y001564D01*
X017197Y001564D02*
X017120Y001641D01*
X017120Y001794D01*
X017273Y002025D02*
X017120Y002178D01*
X017273Y002332D01*
X017580Y002332D01*
X017427Y002485D02*
X017427Y002562D01*
X017120Y002562D01*
X017120Y002485D02*
X017120Y002639D01*
X017120Y002792D02*
X017427Y002792D01*
X017427Y002945D02*
X017273Y002792D01*
X017427Y002945D02*
X017427Y003022D01*
X017350Y003176D02*
X017197Y003176D01*
X017120Y003252D01*
X017120Y003406D01*
X017273Y003483D02*
X017273Y003176D01*
X017350Y003176D02*
X017427Y003252D01*
X017427Y003406D01*
X017350Y003483D01*
X017273Y003483D01*
X017197Y003636D02*
X017197Y003713D01*
X017120Y003713D01*
X017120Y003636D01*
X017197Y003636D01*
X017120Y003866D02*
X017120Y004020D01*
X017120Y003943D02*
X017580Y003943D01*
X017580Y003866D01*
X017427Y004173D02*
X017427Y004327D01*
X017504Y004250D02*
X017197Y004250D01*
X017120Y004327D01*
X016907Y004557D02*
X016830Y004557D01*
X016677Y004557D02*
X016370Y004557D01*
X016370Y004480D02*
X016370Y004634D01*
X016447Y004787D02*
X016523Y004864D01*
X016523Y005094D01*
X016600Y005094D02*
X016370Y005094D01*
X016370Y004864D01*
X016447Y004787D01*
X016677Y004864D02*
X016677Y005017D01*
X016600Y005094D01*
X016677Y005247D02*
X016447Y005247D01*
X016370Y005324D01*
X016370Y005554D01*
X016677Y005554D01*
X016600Y005708D02*
X016523Y005785D01*
X016523Y005938D01*
X016447Y006015D01*
X016370Y005938D01*
X016370Y005708D01*
X016600Y005708D02*
X016677Y005785D01*
X016677Y006015D01*
X016677Y006629D02*
X016370Y006782D01*
X016677Y006936D01*
X016677Y007166D02*
X016677Y007319D01*
X016600Y007396D01*
X016370Y007396D01*
X016370Y007166D01*
X016447Y007089D01*
X016523Y007166D01*
X016523Y007396D01*
X016370Y007549D02*
X016370Y007703D01*
X016370Y007626D02*
X016830Y007626D01*
X016830Y007549D01*
X016600Y007856D02*
X016447Y007856D01*
X016370Y007933D01*
X016370Y008163D01*
X016830Y008163D01*
X016677Y008163D02*
X016677Y007933D01*
X016600Y007856D01*
X016677Y008317D02*
X016677Y008393D01*
X016370Y008393D01*
X016370Y008317D02*
X016370Y008470D01*
X016370Y008624D02*
X016830Y008624D01*
X016830Y008393D02*
X016907Y008393D01*
X016523Y008624D02*
X016370Y008854D01*
X016370Y009007D02*
X016370Y009161D01*
X016370Y009084D02*
X016830Y009084D01*
X016830Y009007D01*
X016677Y008854D02*
X016523Y008624D01*
X016370Y009314D02*
X016370Y009468D01*
X016370Y009391D02*
X016677Y009391D01*
X016677Y009314D01*
X016830Y009391D02*
X016907Y009391D01*
X016600Y009621D02*
X016677Y009698D01*
X016677Y009928D01*
X016523Y009851D02*
X016523Y009698D01*
X016600Y009621D01*
X016370Y009621D02*
X016370Y009851D01*
X016447Y009928D01*
X016523Y009851D01*
X016523Y010542D02*
X016370Y010695D01*
X016523Y010849D01*
X016830Y010849D01*
X016677Y011002D02*
X016830Y011156D01*
X016370Y011156D01*
X016370Y011309D02*
X016370Y011002D01*
X016370Y011463D02*
X016370Y011539D01*
X016447Y011539D01*
X016447Y011463D01*
X016370Y011463D01*
X016370Y011693D02*
X016677Y012000D01*
X016754Y012000D01*
X016830Y011923D01*
X016830Y011770D01*
X016754Y011693D01*
X016370Y011693D02*
X016370Y012000D01*
X016523Y010542D02*
X016830Y010542D01*
X015850Y005708D02*
X015620Y005708D01*
X015850Y005708D02*
X015927Y005631D01*
X015927Y005401D01*
X015620Y005401D01*
X015177Y004250D02*
X015177Y004173D01*
X015023Y004020D01*
X014870Y004020D02*
X015177Y004020D01*
X015100Y003866D02*
X014947Y003866D01*
X014870Y003790D01*
X014870Y003636D01*
X014947Y003559D01*
X015100Y003559D01*
X015177Y003636D01*
X015177Y003790D01*
X015100Y003866D01*
X015177Y003406D02*
X015177Y003252D01*
X015254Y003329D02*
X014947Y003329D01*
X014870Y003406D01*
X014870Y003099D02*
X014870Y002869D01*
X014947Y002792D01*
X015100Y002792D01*
X015177Y002869D01*
X015177Y003099D01*
X015100Y002639D02*
X015023Y002639D01*
X015023Y002332D01*
X014947Y002332D02*
X015100Y002332D01*
X015177Y002408D01*
X015177Y002562D01*
X015100Y002639D01*
X014870Y002562D02*
X014870Y002408D01*
X014947Y002332D01*
X014870Y002178D02*
X014870Y002025D01*
X014870Y002101D02*
X015330Y002101D01*
X015330Y002025D01*
X015330Y001794D02*
X014870Y001794D01*
X014870Y001718D02*
X014870Y001871D01*
X014947Y001564D02*
X015100Y001564D01*
X015177Y001488D01*
X015177Y001334D01*
X015100Y001257D01*
X014947Y001257D01*
X014870Y001334D01*
X014870Y001488D01*
X014947Y001564D01*
X015330Y001718D02*
X015330Y001794D01*
X015620Y001794D02*
X015620Y001641D01*
X015697Y001564D01*
X015850Y001564D01*
X015927Y001641D01*
X015927Y001794D01*
X015850Y001871D01*
X015773Y001871D01*
X015773Y001564D01*
X015620Y001411D02*
X015620Y001257D01*
X015620Y001334D02*
X016080Y001334D01*
X016080Y001257D01*
X015927Y001104D02*
X015620Y001104D01*
X015620Y000874D01*
X015697Y000797D01*
X015927Y000797D01*
X015850Y000643D02*
X015620Y000643D01*
X015620Y000413D01*
X015697Y000337D01*
X015773Y000413D01*
X015773Y000643D01*
X015850Y000643D02*
X015927Y000567D01*
X015927Y000413D01*
X016004Y000183D02*
X016080Y000106D01*
X016080Y-000047D01*
X016004Y-000124D01*
X015927Y-000124D01*
X015850Y-000047D01*
X015850Y000106D01*
X015773Y000183D01*
X015697Y000183D01*
X015620Y000106D01*
X015620Y-000047D01*
X015697Y-000124D01*
X015697Y-000277D02*
X015620Y-000277D01*
X015620Y-000354D01*
X015697Y-000354D01*
X015697Y-000277D01*
X015697Y-000507D02*
X015927Y-000507D01*
X015697Y-000507D02*
X015620Y-000584D01*
X015697Y-000661D01*
X015620Y-000738D01*
X015697Y-000814D01*
X015927Y-000814D01*
X015927Y-000968D02*
X015697Y-000968D01*
X015620Y-001045D01*
X015697Y-001121D01*
X015620Y-001198D01*
X015697Y-001275D01*
X015927Y-001275D01*
X015927Y-001428D02*
X015697Y-001428D01*
X015620Y-001505D01*
X015697Y-001582D01*
X015620Y-001658D01*
X015697Y-001735D01*
X015927Y-001735D01*
X016447Y-000814D02*
X016677Y-000814D01*
X015330Y-000814D02*
X015330Y-000738D01*
X014870Y-000738D01*
X014870Y-000814D02*
X014870Y-000661D01*
X014947Y-000507D02*
X015023Y-000431D01*
X015023Y-000201D01*
X015100Y-000201D02*
X014870Y-000201D01*
X014870Y-000431D01*
X014947Y-000507D01*
X015177Y-000431D02*
X015177Y-000277D01*
X015100Y-000201D01*
X015023Y-000047D02*
X015177Y000106D01*
X015177Y000183D01*
X015177Y-000047D02*
X014870Y-000047D01*
X014947Y-000968D02*
X015100Y-000968D01*
X015177Y-001045D01*
X015177Y-001198D01*
X015100Y-001275D01*
X014947Y-001275D01*
X014870Y-001198D01*
X014870Y-001045D01*
X014947Y-000968D01*
X014947Y-001428D02*
X014870Y-001505D01*
X014870Y-001658D01*
X014947Y-001735D01*
X015100Y-001658D02*
X015100Y-001505D01*
X015023Y-001428D01*
X014947Y-001428D01*
X015100Y-001658D02*
X015177Y-001735D01*
X015254Y-001735D01*
X015330Y-001658D01*
X015330Y-001505D01*
X015254Y-001428D01*
X015100Y000797D02*
X014947Y000797D01*
X014870Y000874D01*
X014870Y001104D01*
X015177Y001104D02*
X015177Y000874D01*
X015100Y000797D01*
X015773Y002025D02*
X015620Y002178D01*
X015773Y002332D01*
X016080Y002332D01*
X016080Y002025D02*
X015773Y002025D01*
X016370Y002945D02*
X016830Y002945D01*
X016677Y003176D02*
X016523Y002945D01*
X016370Y003176D01*
X016447Y003406D02*
X016370Y003483D01*
X016447Y003406D02*
X016754Y003406D01*
X016677Y003329D02*
X016677Y003483D01*
X016600Y003636D02*
X016447Y003636D01*
X016370Y003713D01*
X016370Y003866D01*
X016447Y003943D01*
X016600Y003943D01*
X016677Y003866D01*
X016677Y003713D01*
X016600Y003636D01*
X016523Y004096D02*
X016677Y004250D01*
X016677Y004327D01*
X016677Y004480D02*
X016677Y004557D01*
X016677Y004096D02*
X016370Y004096D01*
X016080Y003943D02*
X016080Y003866D01*
X017580Y002562D02*
X017657Y002562D01*
X017580Y002025D02*
X017273Y002025D01*
M02*
