G75*
G70*
%OFA0B0*%
%FSLAX24Y24*%
%IPPOS*%
%LPD*%
%AMOC8*
5,1,8,0,0,1.08239X$1,22.5*
%
%ADD10C,0.0000*%
%ADD11C,0.1221*%
%ADD12C,0.1142*%
%ADD13C,0.0640*%
%ADD14OC8,0.0560*%
%ADD15C,0.0634*%
%ADD16C,0.0634*%
%ADD17C,0.0640*%
%ADD18C,0.0780*%
%ADD19OC8,0.0780*%
%ADD20C,0.1700*%
%ADD21C,0.1660*%
%ADD22R,0.0830X0.0630*%
%ADD23R,0.0830X0.1540*%
D10*
X000100Y001133D02*
X000100Y020818D01*
X019592Y020818D01*
X019592Y001133D01*
X000100Y001133D01*
X000653Y002027D02*
X000655Y002075D01*
X000661Y002123D01*
X000671Y002170D01*
X000684Y002216D01*
X000702Y002261D01*
X000722Y002305D01*
X000747Y002347D01*
X000775Y002386D01*
X000805Y002423D01*
X000839Y002457D01*
X000876Y002489D01*
X000914Y002518D01*
X000955Y002543D01*
X000998Y002565D01*
X001043Y002583D01*
X001089Y002597D01*
X001136Y002608D01*
X001184Y002615D01*
X001232Y002618D01*
X001280Y002617D01*
X001328Y002612D01*
X001376Y002603D01*
X001422Y002591D01*
X001467Y002574D01*
X001511Y002554D01*
X001553Y002531D01*
X001593Y002504D01*
X001631Y002474D01*
X001666Y002441D01*
X001698Y002405D01*
X001728Y002367D01*
X001754Y002326D01*
X001776Y002283D01*
X001796Y002239D01*
X001811Y002194D01*
X001823Y002147D01*
X001831Y002099D01*
X001835Y002051D01*
X001835Y002003D01*
X001831Y001955D01*
X001823Y001907D01*
X001811Y001860D01*
X001796Y001815D01*
X001776Y001771D01*
X001754Y001728D01*
X001728Y001687D01*
X001698Y001649D01*
X001666Y001613D01*
X001631Y001580D01*
X001593Y001550D01*
X001553Y001523D01*
X001511Y001500D01*
X001467Y001480D01*
X001422Y001463D01*
X001376Y001451D01*
X001328Y001442D01*
X001280Y001437D01*
X001232Y001436D01*
X001184Y001439D01*
X001136Y001446D01*
X001089Y001457D01*
X001043Y001471D01*
X000998Y001489D01*
X000955Y001511D01*
X000914Y001536D01*
X000876Y001565D01*
X000839Y001597D01*
X000805Y001631D01*
X000775Y001668D01*
X000747Y001707D01*
X000722Y001749D01*
X000702Y001793D01*
X000684Y001838D01*
X000671Y001884D01*
X000661Y001931D01*
X000655Y001979D01*
X000653Y002027D01*
X018049Y010633D02*
X018051Y010680D01*
X018057Y010726D01*
X018067Y010772D01*
X018080Y010817D01*
X018098Y010860D01*
X018119Y010902D01*
X018143Y010942D01*
X018171Y010979D01*
X018202Y011014D01*
X018236Y011047D01*
X018272Y011076D01*
X018311Y011102D01*
X018352Y011125D01*
X018395Y011144D01*
X018439Y011160D01*
X018484Y011172D01*
X018530Y011180D01*
X018577Y011184D01*
X018623Y011184D01*
X018670Y011180D01*
X018716Y011172D01*
X018761Y011160D01*
X018805Y011144D01*
X018848Y011125D01*
X018889Y011102D01*
X018928Y011076D01*
X018964Y011047D01*
X018998Y011014D01*
X019029Y010979D01*
X019057Y010942D01*
X019081Y010902D01*
X019102Y010860D01*
X019120Y010817D01*
X019133Y010772D01*
X019143Y010726D01*
X019149Y010680D01*
X019151Y010633D01*
X019149Y010586D01*
X019143Y010540D01*
X019133Y010494D01*
X019120Y010449D01*
X019102Y010406D01*
X019081Y010364D01*
X019057Y010324D01*
X019029Y010287D01*
X018998Y010252D01*
X018964Y010219D01*
X018928Y010190D01*
X018889Y010164D01*
X018848Y010141D01*
X018805Y010122D01*
X018761Y010106D01*
X018716Y010094D01*
X018670Y010086D01*
X018623Y010082D01*
X018577Y010082D01*
X018530Y010086D01*
X018484Y010094D01*
X018439Y010106D01*
X018395Y010122D01*
X018352Y010141D01*
X018311Y010164D01*
X018272Y010190D01*
X018236Y010219D01*
X018202Y010252D01*
X018171Y010287D01*
X018143Y010324D01*
X018119Y010364D01*
X018098Y010406D01*
X018080Y010449D01*
X018067Y010494D01*
X018057Y010540D01*
X018051Y010586D01*
X018049Y010633D01*
X018153Y017527D02*
X018155Y017575D01*
X018161Y017623D01*
X018171Y017670D01*
X018184Y017716D01*
X018202Y017761D01*
X018222Y017805D01*
X018247Y017847D01*
X018275Y017886D01*
X018305Y017923D01*
X018339Y017957D01*
X018376Y017989D01*
X018414Y018018D01*
X018455Y018043D01*
X018498Y018065D01*
X018543Y018083D01*
X018589Y018097D01*
X018636Y018108D01*
X018684Y018115D01*
X018732Y018118D01*
X018780Y018117D01*
X018828Y018112D01*
X018876Y018103D01*
X018922Y018091D01*
X018967Y018074D01*
X019011Y018054D01*
X019053Y018031D01*
X019093Y018004D01*
X019131Y017974D01*
X019166Y017941D01*
X019198Y017905D01*
X019228Y017867D01*
X019254Y017826D01*
X019276Y017783D01*
X019296Y017739D01*
X019311Y017694D01*
X019323Y017647D01*
X019331Y017599D01*
X019335Y017551D01*
X019335Y017503D01*
X019331Y017455D01*
X019323Y017407D01*
X019311Y017360D01*
X019296Y017315D01*
X019276Y017271D01*
X019254Y017228D01*
X019228Y017187D01*
X019198Y017149D01*
X019166Y017113D01*
X019131Y017080D01*
X019093Y017050D01*
X019053Y017023D01*
X019011Y017000D01*
X018967Y016980D01*
X018922Y016963D01*
X018876Y016951D01*
X018828Y016942D01*
X018780Y016937D01*
X018732Y016936D01*
X018684Y016939D01*
X018636Y016946D01*
X018589Y016957D01*
X018543Y016971D01*
X018498Y016989D01*
X018455Y017011D01*
X018414Y017036D01*
X018376Y017065D01*
X018339Y017097D01*
X018305Y017131D01*
X018275Y017168D01*
X018247Y017207D01*
X018222Y017249D01*
X018202Y017293D01*
X018184Y017338D01*
X018171Y017384D01*
X018161Y017431D01*
X018155Y017479D01*
X018153Y017527D01*
X000443Y019883D02*
X000445Y019930D01*
X000451Y019976D01*
X000461Y020022D01*
X000474Y020067D01*
X000492Y020110D01*
X000513Y020152D01*
X000537Y020192D01*
X000565Y020229D01*
X000596Y020264D01*
X000630Y020297D01*
X000666Y020326D01*
X000705Y020352D01*
X000746Y020375D01*
X000789Y020394D01*
X000833Y020410D01*
X000878Y020422D01*
X000924Y020430D01*
X000971Y020434D01*
X001017Y020434D01*
X001064Y020430D01*
X001110Y020422D01*
X001155Y020410D01*
X001199Y020394D01*
X001242Y020375D01*
X001283Y020352D01*
X001322Y020326D01*
X001358Y020297D01*
X001392Y020264D01*
X001423Y020229D01*
X001451Y020192D01*
X001475Y020152D01*
X001496Y020110D01*
X001514Y020067D01*
X001527Y020022D01*
X001537Y019976D01*
X001543Y019930D01*
X001545Y019883D01*
X001543Y019836D01*
X001537Y019790D01*
X001527Y019744D01*
X001514Y019699D01*
X001496Y019656D01*
X001475Y019614D01*
X001451Y019574D01*
X001423Y019537D01*
X001392Y019502D01*
X001358Y019469D01*
X001322Y019440D01*
X001283Y019414D01*
X001242Y019391D01*
X001199Y019372D01*
X001155Y019356D01*
X001110Y019344D01*
X001064Y019336D01*
X001017Y019332D01*
X000971Y019332D01*
X000924Y019336D01*
X000878Y019344D01*
X000833Y019356D01*
X000789Y019372D01*
X000746Y019391D01*
X000705Y019414D01*
X000666Y019440D01*
X000630Y019469D01*
X000596Y019502D01*
X000565Y019537D01*
X000537Y019574D01*
X000513Y019614D01*
X000492Y019656D01*
X000474Y019699D01*
X000461Y019744D01*
X000451Y019790D01*
X000445Y019836D01*
X000443Y019883D01*
D11*
X018744Y017527D03*
X001244Y002027D03*
D12*
X018600Y010633D03*
X000994Y019883D03*
D13*
X001100Y018383D03*
X001100Y017383D03*
X001100Y016383D03*
X001100Y015383D03*
X001100Y014383D03*
X001100Y013383D03*
X001100Y012383D03*
X001100Y011383D03*
X001100Y010383D03*
X001100Y009383D03*
X001100Y008383D03*
X001100Y007383D03*
X001100Y006383D03*
X001100Y005383D03*
X001100Y004383D03*
X001100Y003383D03*
X003100Y003133D03*
X003100Y004133D03*
X003100Y005133D03*
X003100Y006133D03*
X003100Y007133D03*
X003100Y008133D03*
X003100Y009133D03*
X003100Y010133D03*
X003100Y011133D03*
X003100Y012133D03*
X003100Y013133D03*
X003600Y014133D03*
X004600Y014133D03*
X005600Y014133D03*
X006600Y014133D03*
X007600Y014133D03*
X008600Y014133D03*
X009100Y013133D03*
X009100Y012133D03*
X009100Y011133D03*
X009100Y010133D03*
X009100Y009133D03*
X009100Y008133D03*
X009100Y007133D03*
X009100Y006133D03*
X009100Y005133D03*
X009100Y004133D03*
X009100Y003133D03*
X009100Y002133D03*
X013100Y001883D03*
X014100Y001883D03*
X008100Y008633D03*
X008100Y009633D03*
X003100Y002133D03*
D14*
X004600Y003633D03*
X005600Y003633D03*
X006600Y003633D03*
X007600Y003633D03*
X007600Y007633D03*
X006600Y007633D03*
X005600Y007633D03*
X004600Y007633D03*
X010600Y010633D03*
X012600Y011633D03*
X010600Y014633D03*
X010850Y015383D03*
X010850Y016383D03*
X010850Y017383D03*
X006850Y017383D03*
X006850Y016383D03*
X006850Y015383D03*
X003100Y015633D03*
X002600Y014883D03*
X002100Y015633D03*
X012600Y007633D03*
D15*
X005100Y016883D03*
X004100Y016883D03*
X003100Y016883D03*
D16*
X002600Y019336D02*
X002600Y019930D01*
X003600Y019930D02*
X003600Y019336D01*
X004600Y019336D02*
X004600Y019930D01*
X006600Y019930D02*
X006600Y019336D01*
X007600Y019336D02*
X007600Y019930D01*
X008600Y019930D02*
X008600Y019336D01*
X010600Y019336D02*
X010600Y019930D01*
X011600Y019930D02*
X011600Y019336D01*
X012600Y019336D02*
X012600Y019930D01*
X014600Y019930D02*
X014600Y019336D01*
X015600Y019336D02*
X015600Y019930D01*
X016600Y019930D02*
X016600Y019336D01*
X017600Y019336D02*
X017600Y019930D01*
X018303Y008633D02*
X018897Y008633D01*
X018897Y007633D02*
X018303Y007633D01*
X018303Y006633D02*
X018897Y006633D01*
X018897Y005633D02*
X018303Y005633D01*
X011850Y002430D02*
X011850Y001836D01*
X010850Y001836D02*
X010850Y002430D01*
D17*
X013770Y009243D02*
X014370Y009243D01*
X014370Y011023D02*
X013770Y011023D01*
X013490Y011803D02*
X013490Y012403D01*
X014460Y012403D02*
X014460Y011803D01*
X016240Y011803D02*
X016240Y012403D01*
X017210Y012403D02*
X017210Y011803D01*
X016930Y011023D02*
X016330Y011023D01*
X016330Y009243D02*
X016930Y009243D01*
X018990Y011803D02*
X018990Y012403D01*
X018990Y014363D02*
X018990Y014963D01*
X017210Y014963D02*
X017210Y014363D01*
X016240Y014363D02*
X016240Y014963D01*
X016330Y015743D02*
X016930Y015743D01*
X016930Y017523D02*
X016330Y017523D01*
X014370Y017523D02*
X013770Y017523D01*
X013770Y015743D02*
X014370Y015743D01*
X014460Y014963D02*
X014460Y014363D01*
X013490Y014363D02*
X013490Y014963D01*
X011710Y014963D02*
X011710Y014363D01*
X011710Y012403D02*
X011710Y011803D01*
D18*
X008100Y002133D03*
X007100Y002133D03*
X006100Y002133D03*
D19*
X010350Y005383D03*
X011350Y005383D03*
X011350Y006383D03*
X011350Y007383D03*
X010350Y007383D03*
X010350Y006383D03*
X010350Y008383D03*
X011350Y008383D03*
X011350Y009383D03*
X010350Y009383D03*
D20*
X015386Y002883D03*
D21*
X016637Y004364D03*
X018269Y002893D03*
D22*
X013860Y005973D03*
X013860Y006873D03*
X013860Y007773D03*
D23*
X016340Y006883D03*
M02*
