G75*
%MOIN*%
%OFA0B0*%
%FSLAX24Y24*%
%IPPOS*%
%LPD*%
%AMOC8*
5,1,8,0,0,1.08239X$1,22.5*
%
%ADD10C,0.0000*%
%ADD11C,0.0040*%
D10*
X000100Y001383D02*
X000100Y021068D01*
X019592Y021068D01*
X019592Y001383D01*
X000100Y001383D01*
X000653Y002277D02*
X000655Y002325D01*
X000661Y002373D01*
X000671Y002420D01*
X000684Y002466D01*
X000702Y002511D01*
X000722Y002555D01*
X000747Y002597D01*
X000775Y002636D01*
X000805Y002673D01*
X000839Y002707D01*
X000876Y002739D01*
X000914Y002768D01*
X000955Y002793D01*
X000998Y002815D01*
X001043Y002833D01*
X001089Y002847D01*
X001136Y002858D01*
X001184Y002865D01*
X001232Y002868D01*
X001280Y002867D01*
X001328Y002862D01*
X001376Y002853D01*
X001422Y002841D01*
X001467Y002824D01*
X001511Y002804D01*
X001553Y002781D01*
X001593Y002754D01*
X001631Y002724D01*
X001666Y002691D01*
X001698Y002655D01*
X001728Y002617D01*
X001754Y002576D01*
X001776Y002533D01*
X001796Y002489D01*
X001811Y002444D01*
X001823Y002397D01*
X001831Y002349D01*
X001835Y002301D01*
X001835Y002253D01*
X001831Y002205D01*
X001823Y002157D01*
X001811Y002110D01*
X001796Y002065D01*
X001776Y002021D01*
X001754Y001978D01*
X001728Y001937D01*
X001698Y001899D01*
X001666Y001863D01*
X001631Y001830D01*
X001593Y001800D01*
X001553Y001773D01*
X001511Y001750D01*
X001467Y001730D01*
X001422Y001713D01*
X001376Y001701D01*
X001328Y001692D01*
X001280Y001687D01*
X001232Y001686D01*
X001184Y001689D01*
X001136Y001696D01*
X001089Y001707D01*
X001043Y001721D01*
X000998Y001739D01*
X000955Y001761D01*
X000914Y001786D01*
X000876Y001815D01*
X000839Y001847D01*
X000805Y001881D01*
X000775Y001918D01*
X000747Y001957D01*
X000722Y001999D01*
X000702Y002043D01*
X000684Y002088D01*
X000671Y002134D01*
X000661Y002181D01*
X000655Y002229D01*
X000653Y002277D01*
X018049Y010883D02*
X018051Y010930D01*
X018057Y010976D01*
X018067Y011022D01*
X018080Y011067D01*
X018098Y011110D01*
X018119Y011152D01*
X018143Y011192D01*
X018171Y011229D01*
X018202Y011264D01*
X018236Y011297D01*
X018272Y011326D01*
X018311Y011352D01*
X018352Y011375D01*
X018395Y011394D01*
X018439Y011410D01*
X018484Y011422D01*
X018530Y011430D01*
X018577Y011434D01*
X018623Y011434D01*
X018670Y011430D01*
X018716Y011422D01*
X018761Y011410D01*
X018805Y011394D01*
X018848Y011375D01*
X018889Y011352D01*
X018928Y011326D01*
X018964Y011297D01*
X018998Y011264D01*
X019029Y011229D01*
X019057Y011192D01*
X019081Y011152D01*
X019102Y011110D01*
X019120Y011067D01*
X019133Y011022D01*
X019143Y010976D01*
X019149Y010930D01*
X019151Y010883D01*
X019149Y010836D01*
X019143Y010790D01*
X019133Y010744D01*
X019120Y010699D01*
X019102Y010656D01*
X019081Y010614D01*
X019057Y010574D01*
X019029Y010537D01*
X018998Y010502D01*
X018964Y010469D01*
X018928Y010440D01*
X018889Y010414D01*
X018848Y010391D01*
X018805Y010372D01*
X018761Y010356D01*
X018716Y010344D01*
X018670Y010336D01*
X018623Y010332D01*
X018577Y010332D01*
X018530Y010336D01*
X018484Y010344D01*
X018439Y010356D01*
X018395Y010372D01*
X018352Y010391D01*
X018311Y010414D01*
X018272Y010440D01*
X018236Y010469D01*
X018202Y010502D01*
X018171Y010537D01*
X018143Y010574D01*
X018119Y010614D01*
X018098Y010656D01*
X018080Y010699D01*
X018067Y010744D01*
X018057Y010790D01*
X018051Y010836D01*
X018049Y010883D01*
X018153Y017777D02*
X018155Y017825D01*
X018161Y017873D01*
X018171Y017920D01*
X018184Y017966D01*
X018202Y018011D01*
X018222Y018055D01*
X018247Y018097D01*
X018275Y018136D01*
X018305Y018173D01*
X018339Y018207D01*
X018376Y018239D01*
X018414Y018268D01*
X018455Y018293D01*
X018498Y018315D01*
X018543Y018333D01*
X018589Y018347D01*
X018636Y018358D01*
X018684Y018365D01*
X018732Y018368D01*
X018780Y018367D01*
X018828Y018362D01*
X018876Y018353D01*
X018922Y018341D01*
X018967Y018324D01*
X019011Y018304D01*
X019053Y018281D01*
X019093Y018254D01*
X019131Y018224D01*
X019166Y018191D01*
X019198Y018155D01*
X019228Y018117D01*
X019254Y018076D01*
X019276Y018033D01*
X019296Y017989D01*
X019311Y017944D01*
X019323Y017897D01*
X019331Y017849D01*
X019335Y017801D01*
X019335Y017753D01*
X019331Y017705D01*
X019323Y017657D01*
X019311Y017610D01*
X019296Y017565D01*
X019276Y017521D01*
X019254Y017478D01*
X019228Y017437D01*
X019198Y017399D01*
X019166Y017363D01*
X019131Y017330D01*
X019093Y017300D01*
X019053Y017273D01*
X019011Y017250D01*
X018967Y017230D01*
X018922Y017213D01*
X018876Y017201D01*
X018828Y017192D01*
X018780Y017187D01*
X018732Y017186D01*
X018684Y017189D01*
X018636Y017196D01*
X018589Y017207D01*
X018543Y017221D01*
X018498Y017239D01*
X018455Y017261D01*
X018414Y017286D01*
X018376Y017315D01*
X018339Y017347D01*
X018305Y017381D01*
X018275Y017418D01*
X018247Y017457D01*
X018222Y017499D01*
X018202Y017543D01*
X018184Y017588D01*
X018171Y017634D01*
X018161Y017681D01*
X018155Y017729D01*
X018153Y017777D01*
X000443Y020133D02*
X000445Y020180D01*
X000451Y020226D01*
X000461Y020272D01*
X000474Y020317D01*
X000492Y020360D01*
X000513Y020402D01*
X000537Y020442D01*
X000565Y020479D01*
X000596Y020514D01*
X000630Y020547D01*
X000666Y020576D01*
X000705Y020602D01*
X000746Y020625D01*
X000789Y020644D01*
X000833Y020660D01*
X000878Y020672D01*
X000924Y020680D01*
X000971Y020684D01*
X001017Y020684D01*
X001064Y020680D01*
X001110Y020672D01*
X001155Y020660D01*
X001199Y020644D01*
X001242Y020625D01*
X001283Y020602D01*
X001322Y020576D01*
X001358Y020547D01*
X001392Y020514D01*
X001423Y020479D01*
X001451Y020442D01*
X001475Y020402D01*
X001496Y020360D01*
X001514Y020317D01*
X001527Y020272D01*
X001537Y020226D01*
X001543Y020180D01*
X001545Y020133D01*
X001543Y020086D01*
X001537Y020040D01*
X001527Y019994D01*
X001514Y019949D01*
X001496Y019906D01*
X001475Y019864D01*
X001451Y019824D01*
X001423Y019787D01*
X001392Y019752D01*
X001358Y019719D01*
X001322Y019690D01*
X001283Y019664D01*
X001242Y019641D01*
X001199Y019622D01*
X001155Y019606D01*
X001110Y019594D01*
X001064Y019586D01*
X001017Y019582D01*
X000971Y019582D01*
X000924Y019586D01*
X000878Y019594D01*
X000833Y019606D01*
X000789Y019622D01*
X000746Y019641D01*
X000705Y019664D01*
X000666Y019690D01*
X000630Y019719D01*
X000596Y019752D01*
X000565Y019787D01*
X000537Y019824D01*
X000513Y019864D01*
X000492Y019906D01*
X000474Y019949D01*
X000461Y019994D01*
X000451Y020040D01*
X000445Y020086D01*
X000443Y020133D01*
D11*
X006370Y013250D02*
X006370Y012943D01*
X006677Y013250D01*
X006754Y013250D01*
X006830Y013173D01*
X006830Y013020D01*
X006754Y012943D01*
X006447Y012789D02*
X006447Y012713D01*
X006370Y012713D01*
X006370Y012789D01*
X006447Y012789D01*
X006370Y012559D02*
X006370Y012252D01*
X006370Y012406D02*
X006830Y012406D01*
X006677Y012252D01*
X006830Y012099D02*
X006523Y012099D01*
X006370Y011945D01*
X006523Y011792D01*
X006830Y011792D01*
X006677Y011178D02*
X006677Y010948D01*
X006600Y010871D01*
X006523Y010948D01*
X006523Y011101D01*
X006447Y011178D01*
X006370Y011101D01*
X006370Y010871D01*
X006370Y010718D02*
X006370Y010564D01*
X006370Y010641D02*
X006677Y010641D01*
X006677Y010564D01*
X006830Y010641D02*
X006907Y010641D01*
X006830Y010334D02*
X006370Y010334D01*
X006370Y010257D02*
X006370Y010411D01*
X006370Y010104D02*
X006523Y009874D01*
X006677Y010104D01*
X006830Y010257D02*
X006830Y010334D01*
X006830Y009874D02*
X006370Y009874D01*
X006370Y009720D02*
X006370Y009567D01*
X006370Y009643D02*
X006677Y009643D01*
X006677Y009567D01*
X006677Y009413D02*
X006677Y009183D01*
X006600Y009106D01*
X006447Y009106D01*
X006370Y009183D01*
X006370Y009413D01*
X006830Y009413D01*
X006830Y009643D02*
X006907Y009643D01*
X006830Y008876D02*
X006370Y008876D01*
X006370Y008799D02*
X006370Y008953D01*
X006370Y008646D02*
X006370Y008416D01*
X006447Y008339D01*
X006523Y008416D01*
X006523Y008646D01*
X006600Y008646D02*
X006370Y008646D01*
X006600Y008646D02*
X006677Y008569D01*
X006677Y008416D01*
X006677Y008186D02*
X006370Y008032D01*
X006677Y007879D01*
X006677Y007265D02*
X006677Y007035D01*
X006600Y006958D01*
X006523Y007035D01*
X006523Y007188D01*
X006447Y007265D01*
X006370Y007188D01*
X006370Y006958D01*
X006370Y006804D02*
X006677Y006804D01*
X006677Y006497D02*
X006447Y006497D01*
X006370Y006574D01*
X006370Y006804D01*
X005927Y006881D02*
X005927Y006651D01*
X005620Y006651D01*
X005773Y006497D02*
X005773Y006190D01*
X005697Y006190D02*
X005850Y006190D01*
X005927Y006267D01*
X005927Y006421D01*
X005850Y006497D01*
X005773Y006497D01*
X005620Y006421D02*
X005620Y006267D01*
X005697Y006190D01*
X006080Y006037D02*
X005620Y005730D01*
X005620Y005577D02*
X005697Y005500D01*
X006004Y005500D01*
X005927Y005423D02*
X005927Y005577D01*
X006080Y005193D02*
X005620Y005193D01*
X005620Y005116D02*
X005620Y005270D01*
X005620Y004963D02*
X005620Y004886D01*
X005697Y004886D01*
X005697Y004963D01*
X005620Y004963D01*
X005773Y004733D02*
X005773Y004426D01*
X005697Y004426D02*
X005850Y004426D01*
X005927Y004502D01*
X005927Y004656D01*
X005850Y004733D01*
X005773Y004733D01*
X005620Y004656D02*
X005620Y004502D01*
X005697Y004426D01*
X005927Y004272D02*
X005927Y004195D01*
X005773Y004042D01*
X005620Y004042D02*
X005927Y004042D01*
X005927Y003812D02*
X005620Y003812D01*
X005620Y003735D02*
X005620Y003889D01*
X005773Y003582D02*
X006080Y003582D01*
X005927Y003735D02*
X005927Y003812D01*
X006080Y003812D02*
X006157Y003812D01*
X006370Y003812D02*
X006447Y003735D01*
X006600Y003735D01*
X006677Y003812D01*
X006677Y003965D01*
X006600Y004042D01*
X006523Y004042D01*
X006523Y003735D01*
X006370Y003812D02*
X006370Y003965D01*
X006370Y004195D02*
X006830Y004195D01*
X006677Y004426D02*
X006523Y004195D01*
X006370Y004426D01*
X006447Y004656D02*
X006370Y004733D01*
X006447Y004656D02*
X006754Y004656D01*
X006677Y004579D02*
X006677Y004733D01*
X006600Y004886D02*
X006447Y004886D01*
X006370Y004963D01*
X006370Y005116D01*
X006447Y005193D01*
X006600Y005193D01*
X006677Y005116D01*
X006677Y004963D01*
X006600Y004886D01*
X006523Y005346D02*
X006677Y005500D01*
X006677Y005577D01*
X006677Y005730D02*
X006677Y005807D01*
X006370Y005807D01*
X006370Y005730D02*
X006370Y005884D01*
X006447Y006037D02*
X006523Y006114D01*
X006523Y006344D01*
X006600Y006344D02*
X006370Y006344D01*
X006370Y006114D01*
X006447Y006037D01*
X006677Y006114D02*
X006677Y006267D01*
X006600Y006344D01*
X006830Y005807D02*
X006907Y005807D01*
X007120Y005577D02*
X007197Y005500D01*
X007504Y005500D01*
X007427Y005423D02*
X007427Y005577D01*
X007580Y005193D02*
X007120Y005193D01*
X007120Y005116D02*
X007120Y005270D01*
X007120Y004963D02*
X007120Y004886D01*
X007197Y004886D01*
X007197Y004963D01*
X007120Y004963D01*
X007273Y004733D02*
X007273Y004426D01*
X007197Y004426D02*
X007350Y004426D01*
X007427Y004502D01*
X007427Y004656D01*
X007350Y004733D01*
X007273Y004733D01*
X007120Y004656D02*
X007120Y004502D01*
X007197Y004426D01*
X007427Y004272D02*
X007427Y004195D01*
X007273Y004042D01*
X007120Y004042D02*
X007427Y004042D01*
X007427Y003812D02*
X007120Y003812D01*
X007120Y003735D02*
X007120Y003889D01*
X007427Y003812D02*
X007427Y003735D01*
X007580Y003812D02*
X007657Y003812D01*
X007580Y003582D02*
X007273Y003582D01*
X007120Y003428D01*
X007273Y003275D01*
X007580Y003275D01*
X007350Y003121D02*
X007427Y003044D01*
X007427Y002891D01*
X007350Y002814D01*
X007197Y002814D01*
X007120Y002891D01*
X007120Y003044D01*
X007273Y003121D02*
X007273Y002814D01*
X007120Y002661D02*
X007120Y002507D01*
X007120Y002584D02*
X007580Y002584D01*
X007580Y002507D01*
X007427Y002354D02*
X007120Y002354D01*
X007120Y002124D01*
X007197Y002047D01*
X007427Y002047D01*
X007350Y001893D02*
X007120Y001893D01*
X007120Y001663D01*
X007197Y001587D01*
X007273Y001663D01*
X007273Y001893D01*
X007350Y001893D02*
X007427Y001817D01*
X007427Y001663D01*
X007504Y001433D02*
X007580Y001356D01*
X007580Y001203D01*
X007504Y001126D01*
X007427Y001126D01*
X007350Y001203D01*
X007350Y001356D01*
X007273Y001433D01*
X007197Y001433D01*
X007120Y001356D01*
X007120Y001203D01*
X007197Y001126D01*
X007197Y000973D02*
X007120Y000973D01*
X007120Y000896D01*
X007197Y000896D01*
X007197Y000973D01*
X007197Y000743D02*
X007427Y000743D01*
X007197Y000743D02*
X007120Y000666D01*
X007197Y000589D01*
X007120Y000512D01*
X007197Y000436D01*
X007427Y000436D01*
X007427Y000282D02*
X007197Y000282D01*
X007120Y000205D01*
X007197Y000129D01*
X007120Y000052D01*
X007197Y-000025D01*
X007427Y-000025D01*
X007427Y-000178D02*
X007197Y-000178D01*
X007120Y-000255D01*
X007197Y-000332D01*
X007120Y-000408D01*
X007197Y-000485D01*
X007427Y-000485D01*
X006830Y-000408D02*
X006754Y-000485D01*
X006677Y-000485D01*
X006600Y-000408D01*
X006600Y-000255D01*
X006523Y-000178D01*
X006447Y-000178D01*
X006370Y-000255D01*
X006370Y-000408D01*
X006447Y-000485D01*
X006754Y-000178D02*
X006830Y-000255D01*
X006830Y-000408D01*
X006677Y000052D02*
X006677Y000205D01*
X006600Y000282D01*
X006370Y000282D01*
X006370Y000052D01*
X006447Y-000025D01*
X006523Y000052D01*
X006523Y000282D01*
X006447Y000436D02*
X006370Y000512D01*
X006370Y000743D01*
X006677Y000743D01*
X006830Y000896D02*
X006830Y000973D01*
X006370Y000973D01*
X006370Y001049D02*
X006370Y000896D01*
X006447Y001203D02*
X006600Y001203D01*
X006677Y001280D01*
X006677Y001433D01*
X006600Y001510D01*
X006523Y001510D01*
X006523Y001203D01*
X006447Y001203D02*
X006370Y001280D01*
X006370Y001433D01*
X006370Y001663D02*
X006370Y001893D01*
X006447Y001970D01*
X006523Y001893D01*
X006523Y001740D01*
X006600Y001663D01*
X006677Y001740D01*
X006677Y001970D01*
X006830Y002584D02*
X006370Y002584D01*
X006523Y002584D02*
X006677Y002814D01*
X006600Y002968D02*
X006447Y002968D01*
X006370Y003044D01*
X006370Y003198D01*
X006447Y003275D01*
X006600Y003275D01*
X006677Y003198D01*
X006677Y003044D01*
X006600Y002968D01*
X006370Y002814D02*
X006523Y002584D01*
X006080Y002584D02*
X005620Y002584D01*
X005620Y002507D02*
X005620Y002661D01*
X005697Y002814D02*
X005620Y002891D01*
X005620Y003044D01*
X005773Y003121D02*
X005773Y002814D01*
X005697Y002814D02*
X005850Y002814D01*
X005927Y002891D01*
X005927Y003044D01*
X005850Y003121D01*
X005773Y003121D01*
X005773Y003275D02*
X005620Y003428D01*
X005773Y003582D01*
X005773Y003275D02*
X006080Y003275D01*
X006370Y003428D02*
X006370Y003582D01*
X006370Y003505D02*
X006830Y003505D01*
X006830Y003428D01*
X007273Y003121D02*
X007350Y003121D01*
X006080Y002584D02*
X006080Y002507D01*
X005927Y002354D02*
X005620Y002354D01*
X005620Y002124D01*
X005697Y002047D01*
X005927Y002047D01*
X005850Y001893D02*
X005620Y001893D01*
X005620Y001663D01*
X005697Y001587D01*
X005773Y001663D01*
X005773Y001893D01*
X005850Y001893D02*
X005927Y001817D01*
X005927Y001663D01*
X006004Y001433D02*
X006080Y001356D01*
X006080Y001203D01*
X006004Y001126D01*
X005927Y001126D01*
X005850Y001203D01*
X005850Y001356D01*
X005773Y001433D01*
X005697Y001433D01*
X005620Y001356D01*
X005620Y001203D01*
X005697Y001126D01*
X005697Y000973D02*
X005620Y000973D01*
X005620Y000896D01*
X005697Y000896D01*
X005697Y000973D01*
X005697Y000743D02*
X005620Y000666D01*
X005697Y000589D01*
X005620Y000512D01*
X005697Y000436D01*
X005927Y000436D01*
X005927Y000282D02*
X005697Y000282D01*
X005620Y000205D01*
X005697Y000129D01*
X005620Y000052D01*
X005697Y-000025D01*
X005927Y-000025D01*
X005927Y-000178D02*
X005697Y-000178D01*
X005620Y-000255D01*
X005697Y-000332D01*
X005620Y-000408D01*
X005697Y-000485D01*
X005927Y-000485D01*
X006447Y000436D02*
X006677Y000436D01*
X005927Y000743D02*
X005697Y000743D01*
X005330Y000512D02*
X005330Y000436D01*
X005330Y000512D02*
X004870Y000512D01*
X004870Y000436D02*
X004870Y000589D01*
X004947Y000743D02*
X005023Y000819D01*
X005023Y001049D01*
X005100Y001049D02*
X004870Y001049D01*
X004870Y000819D01*
X004947Y000743D01*
X005177Y000819D02*
X005177Y000973D01*
X005100Y001049D01*
X005023Y001203D02*
X005177Y001356D01*
X005177Y001433D01*
X005177Y001203D02*
X004870Y001203D01*
X004947Y002047D02*
X004870Y002124D01*
X004870Y002354D01*
X004947Y002507D02*
X004870Y002584D01*
X004870Y002738D01*
X004947Y002814D01*
X005100Y002814D01*
X005177Y002738D01*
X005177Y002584D01*
X005100Y002507D01*
X004947Y002507D01*
X005177Y002354D02*
X005177Y002124D01*
X005100Y002047D01*
X004947Y002047D01*
X004870Y002968D02*
X004870Y003121D01*
X004870Y003044D02*
X005330Y003044D01*
X005330Y002968D01*
X005330Y003275D02*
X005330Y003351D01*
X004870Y003351D01*
X004870Y003275D02*
X004870Y003428D01*
X004947Y003582D02*
X005100Y003582D01*
X005177Y003658D01*
X005177Y003812D01*
X005100Y003889D01*
X005023Y003889D01*
X005023Y003582D01*
X004947Y003582D02*
X004870Y003658D01*
X004870Y003812D01*
X004947Y004042D02*
X004870Y004119D01*
X004870Y004349D01*
X004947Y004579D02*
X004870Y004656D01*
X004947Y004579D02*
X005254Y004579D01*
X005177Y004502D02*
X005177Y004656D01*
X005100Y004809D02*
X004947Y004809D01*
X004870Y004886D01*
X004870Y005040D01*
X004947Y005116D01*
X005100Y005116D01*
X005177Y005040D01*
X005177Y004886D01*
X005100Y004809D01*
X005177Y004349D02*
X005177Y004119D01*
X005100Y004042D01*
X004947Y004042D01*
X005023Y005270D02*
X005177Y005423D01*
X005177Y005500D01*
X005177Y005270D02*
X004870Y005270D01*
X004947Y006114D02*
X004870Y006190D01*
X004870Y006421D01*
X004947Y006574D02*
X004870Y006651D01*
X004870Y006804D01*
X004947Y006881D01*
X005100Y006881D01*
X005177Y006804D01*
X005177Y006651D01*
X005100Y006574D01*
X004947Y006574D01*
X005177Y006421D02*
X005177Y006190D01*
X005100Y006114D01*
X004947Y006114D01*
X004870Y007035D02*
X005177Y007035D01*
X005177Y007265D01*
X005100Y007341D01*
X004870Y007341D01*
X004947Y007572D02*
X004870Y007648D01*
X004947Y007572D02*
X005254Y007572D01*
X005177Y007495D02*
X005177Y007648D01*
X005177Y007802D02*
X004870Y007802D01*
X005023Y007802D02*
X005177Y007955D01*
X005177Y008032D01*
X005100Y008186D02*
X004947Y008186D01*
X004870Y008262D01*
X004870Y008416D01*
X004947Y008492D01*
X005100Y008492D01*
X005177Y008416D01*
X005177Y008262D01*
X005100Y008186D01*
X004870Y008646D02*
X004870Y008799D01*
X004870Y008723D02*
X005330Y008723D01*
X005330Y008646D01*
X005330Y008953D02*
X005330Y009030D01*
X004870Y009030D01*
X004870Y009106D02*
X004870Y008953D01*
X004947Y009260D02*
X005100Y009260D01*
X005177Y009336D01*
X005177Y009490D01*
X005100Y009567D01*
X005023Y009567D01*
X005023Y009260D01*
X004947Y009260D02*
X004870Y009336D01*
X004870Y009490D01*
X004870Y009720D02*
X005177Y009720D01*
X005023Y009720D02*
X005177Y009874D01*
X005177Y009950D01*
X005330Y010564D02*
X005023Y010564D01*
X004870Y010718D01*
X005023Y010871D01*
X005330Y010871D01*
X005177Y011025D02*
X005330Y011178D01*
X004870Y011178D01*
X004870Y011025D02*
X004870Y011332D01*
X004870Y011485D02*
X004870Y011562D01*
X004947Y011562D01*
X004947Y011485D01*
X004870Y011485D01*
X004870Y011715D02*
X005177Y012022D01*
X005254Y012022D01*
X005330Y011945D01*
X005330Y011792D01*
X005254Y011715D01*
X004870Y011715D02*
X004870Y012022D01*
X006830Y008876D02*
X006830Y008799D01*
X005850Y006958D02*
X005620Y006958D01*
X005850Y006958D02*
X005927Y006881D01*
X006370Y005346D02*
X006677Y005346D01*
X006080Y005193D02*
X006080Y005116D01*
X007580Y005116D02*
X007580Y005193D01*
X005100Y000282D02*
X004947Y000282D01*
X004870Y000205D01*
X004870Y000052D01*
X004947Y-000025D01*
X005100Y-000025D01*
X005177Y000052D01*
X005177Y000205D01*
X005100Y000282D01*
X005023Y-000178D02*
X004947Y-000178D01*
X004870Y-000255D01*
X004870Y-000408D01*
X004947Y-000485D01*
X005100Y-000408D02*
X005100Y-000255D01*
X005023Y-000178D01*
X005254Y-000178D02*
X005330Y-000255D01*
X005330Y-000408D01*
X005254Y-000485D01*
X005177Y-000485D01*
X005100Y-000408D01*
M02*
