%
M48
M72
T01C0.0120
T02C0.0320
T03C0.0394
T04C0.0400
T05C0.1102
T06C0.1180
T07C0.1181
T08C0.1260
%
T01
X9660Y8883
X15010Y8873
X10000Y15293
T02
X4600Y7883
X4600Y3883
X5600Y3883
X5600Y7883
X6600Y7883
X6600Y3883
X7600Y7883
X7600Y3883
X2100Y15883
X2600Y15133
X3100Y15883
X12850Y7883
X12850Y11883
X10600Y10883
X10600Y14883
X10850Y17633
X6850Y17633
X6850Y16633
X10850Y16633
X10850Y15633
X6850Y15633
T03
X3100Y17133
X4100Y17133
X5100Y17133
X10600Y19883
X11600Y19883
X12600Y19883
X6600Y19883
X7600Y19883
X8600Y19883
X2600Y19883
X3600Y19883
X4600Y19883
X14600Y19883
X15600Y19883
X16600Y19883
X17600Y19883
X18600Y8883
X18600Y7883
X18600Y6883
X18600Y5883
X11850Y2133
X10850Y2133
T04
X9100Y13383
X9100Y12383
X9100Y11383
X9100Y10383
X9100Y9383
X9100Y8383
X9100Y7383
X9100Y6383
X9100Y5383
X9100Y4383
X9100Y3383
X9100Y2383
X3100Y2383
X3100Y3383
X3100Y4383
X3100Y5383
X3100Y6383
X3100Y7383
X3100Y8383
X3100Y9383
X3100Y10383
X3100Y11383
X3100Y12383
X3100Y13383
X8100Y8883
X8100Y9883
X3600Y14383
X4600Y14383
X5600Y14383
X6600Y14383
X7600Y14383
X8600Y14383
X1100Y18633
X1100Y17633
X1100Y16633
X1100Y15633
X1100Y14633
X1100Y13633
X1100Y12633
X1100Y11633
X1100Y10633
X1100Y9633
X1100Y8633
X1100Y7633
X1100Y6633
X1100Y5633
X1100Y4633
X1100Y3633
X16630Y15993
X16630Y17773
X14070Y15993
X14070Y17773
X17210Y12353
X18990Y12353
X17210Y14913
X18990Y14913
X11710Y12353
X13490Y12353
X11710Y14913
X13490Y14913
X16630Y9493
X16630Y11273
X14070Y9493
X14070Y11273
X16240Y14913
X14460Y14913
X16240Y12353
X14460Y12353
X6100Y2383
X7100Y2383
X8100Y2383
X11600Y5633
X10600Y5633
X11600Y6633
X10600Y6633
X11600Y7633
X10600Y7633
X11600Y8633
X10600Y8633
X11600Y9633
X10600Y9633
X13100Y2133
X14100Y2133
T05
X994Y20133
X18600Y10883
T06
X18269Y3143
X16637Y4614
T07
X1244Y2277
X18744Y17777
T08
X15386Y3133
M30
